<svg version="1.1" xmlns="http://www.w3.org/2000/svg" xmlns:xlink="http://www.w3.org/1999/xlink">
    <!-- header main block -->
    <symbol  id="arrow"  width="30" height="30" viewBox="0 0 30 30" fill="none">
        <path
            d="M11.4844 14.2969L4.26562 14.2969L6.58594 11.9766C6.86719 11.6953 6.86719 11.25 6.58594 10.9922C6.30469 10.7109 5.85937 10.7109 5.60156 10.9922L2.08594 14.5078C1.94531 14.6484 1.875 14.8359 1.875 15C1.875 15.1875 1.94531 15.3516 2.08594 15.4922L5.60156 19.0078C5.74219 19.1484 5.92969 19.2187 6.09375 19.2187C6.25781 19.2187 6.44531 19.1484 6.58594 19.0078C6.86719 18.7266 6.86719 18.2813 6.58594 18.0234L4.26562 15.7031L11.4844 15.7031C11.8828 15.7031 12.1875 15.3984 12.1875 15C12.1875 14.6016 11.8828 14.2969 11.4844 14.2969ZM15 15.7031C15.1865 15.7031 15.3653 15.629 15.4972 15.4972C15.629 15.3653 15.7031 15.1865 15.7031 15C15.7031 14.8135 15.629 14.6347 15.4972 14.5028C15.3653 14.371 15.1865 14.2969 15 14.2969C14.8135 14.2969 14.6347 14.371 14.5028 14.5028C14.371 14.6347 14.2969 14.8135 14.2969 15C14.2969 15.1865 14.371 15.3653 14.5028 15.4972C14.6347 15.629 14.8135 15.7031 15 15.7031Z"
            fill="#BD9457" />
    </symbol>

    <!-- header subtitle icons -->
    <svg id="hand" width="61" height="60" viewBox="0 0 61 60" fill="none"
        xmlns="http://www.w3.org/2000/svg">
        <path
            d="M30.5 3C28.8529 3 27.4738 4.05469 26.9466 5.50195C26.2675 4.89551 25.3859 4.5 24.4 4.5C22.3031 4.5 20.5875 6.1875 20.5875 8.25V9.64746C20.0335 9.27246 19.4021 9 18.6812 9C16.7958 9 15.25 10.5205 15.25 12.375V14.25H3.8125V44.25H15.3215L15.524 46.2539C15.7146 48.1172 16.8167 49.6406 18.3 50.625V57H19.825V51C20.245 51 20.5875 50.6631 20.5875 50.25C20.5875 49.8369 20.245 49.5 19.825 49.5C19.6671 49.5 19.5152 49.5469 19.3842 49.6377C18.1094 48.9199 17.1979 47.6367 17.0431 46.1016L16.8554 44.25H35.3252L41.8094 38.6982L41.8779 38.5371C41.8779 38.5371 43.4923 34.5 48.6034 34.5C50.7122 34.5 51.4122 35.5283 51.6624 35.9736C51.1054 36.668 47.1142 41.6455 46.6495 42.2139L40.0164 50.3584C39.6887 50.7568 38.125 52.3301 38.125 54.7295V57H39.65V54.7295C39.65 52.9424 40.6984 51.9141 41.2018 51.2988H41.2048L46.9474 44.25H57.1875V14.25H40.4125V8.25C40.4125 6.1875 38.6969 4.5 36.6 4.5C35.6141 4.5 34.7325 4.89551 34.0534 5.50195C33.5262 4.05469 32.1471 3 30.5 3ZM30.5 4.5C31.7718 4.5 32.7875 5.49902 32.7875 6.75V8.25H34.3125C34.3125 6.99902 35.3282 6 36.6 6C37.8718 6 38.8875 6.99902 38.8875 8.25V14.25H34.3125C34.3125 13.8369 33.97 13.5 33.55 13.5C33.13 13.5 32.7875 13.8369 32.7875 14.25H28.2125C28.2125 13.8369 27.87 13.5 27.45 13.5C27.03 13.5 26.6875 13.8369 26.6875 14.25H16.775V12.375C16.775 11.332 17.6209 10.5 18.6812 10.5C19.7416 10.5 20.5875 11.332 20.5875 12.375H22.1125V8.25C22.1125 6.99902 23.1282 6 24.4 6C25.6718 6 26.6875 6.99902 26.6875 8.25C26.6875 8.66309 27.03 9 27.45 9C27.87 9 28.2125 8.66309 28.2125 8.25V6.75C28.2125 5.49902 29.2282 4.5 30.5 4.5ZM27.45 10.5C27.03 10.5 26.6875 10.8369 26.6875 11.25C26.6875 11.6631 27.03 12 27.45 12C27.87 12 28.2125 11.6631 28.2125 11.25C28.2125 10.8369 27.87 10.5 27.45 10.5ZM33.55 10.5C33.13 10.5 32.7875 10.8369 32.7875 11.25C32.7875 11.6631 33.13 12 33.55 12C33.97 12 34.3125 11.6631 34.3125 11.25C34.3125 10.8369 33.97 10.5 33.55 10.5ZM5.3375 15.75H55.6625V42.75H48.1626C49.1366 41.5459 53.2112 36.4658 53.2112 36.4658L53.4971 36.1055L53.3065 35.6924C53.3065 35.6924 51.9721 33 48.6034 33C43.0336 33 40.8474 37.207 40.5793 37.7637L34.7533 42.75H5.3375V15.75ZM12.2 17.25C11.78 17.25 11.4375 17.5869 11.4375 18C11.4375 18.4131 11.78 18.75 12.2 18.75C12.62 18.75 12.9625 18.4131 12.9625 18C12.9625 17.5869 12.62 17.25 12.2 17.25ZM14.4875 17.25C14.0675 17.25 13.725 17.5869 13.725 18C13.725 18.4131 14.0675 18.75 14.4875 18.75C14.9075 18.75 15.25 18.4131 15.25 18C15.25 17.5869 14.9075 17.25 14.4875 17.25ZM16.775 17.25C16.355 17.25 16.0125 17.5869 16.0125 18C16.0125 18.4131 16.355 18.75 16.775 18.75C17.195 18.75 17.5375 18.4131 17.5375 18C17.5375 17.5869 17.195 17.25 16.775 17.25ZM19.0625 17.25C18.6425 17.25 18.3 17.5869 18.3 18C18.3 18.4131 18.6425 18.75 19.0625 18.75C19.4825 18.75 19.825 18.4131 19.825 18C19.825 17.5869 19.4825 17.25 19.0625 17.25ZM21.35 17.25C20.93 17.25 20.5875 17.5869 20.5875 18C20.5875 18.4131 20.93 18.75 21.35 18.75C21.77 18.75 22.1125 18.4131 22.1125 18C22.1125 17.5869 21.77 17.25 21.35 17.25ZM23.6375 17.25C23.2175 17.25 22.875 17.5869 22.875 18C22.875 18.4131 23.2175 18.75 23.6375 18.75C24.0575 18.75 24.4 18.4131 24.4 18C24.4 17.5869 24.0575 17.25 23.6375 17.25ZM25.925 17.25C25.505 17.25 25.1625 17.5869 25.1625 18C25.1625 18.4131 25.505 18.75 25.925 18.75C26.345 18.75 26.6875 18.4131 26.6875 18C26.6875 17.5869 26.345 17.25 25.925 17.25ZM28.2125 17.25C27.7925 17.25 27.45 17.5869 27.45 18C27.45 18.4131 27.7925 18.75 28.2125 18.75C28.6325 18.75 28.975 18.4131 28.975 18C28.975 17.5869 28.6325 17.25 28.2125 17.25ZM30.5 17.25C30.08 17.25 29.7375 17.5869 29.7375 18C29.7375 18.4131 30.08 18.75 30.5 18.75C30.92 18.75 31.2625 18.4131 31.2625 18C31.2625 17.5869 30.92 17.25 30.5 17.25ZM32.7875 17.25C32.3675 17.25 32.025 17.5869 32.025 18C32.025 18.4131 32.3675 18.75 32.7875 18.75C33.2075 18.75 33.55 18.4131 33.55 18C33.55 17.5869 33.2075 17.25 32.7875 17.25ZM35.075 17.25C34.655 17.25 34.3125 17.5869 34.3125 18C34.3125 18.4131 34.655 18.75 35.075 18.75C35.495 18.75 35.8375 18.4131 35.8375 18C35.8375 17.5869 35.495 17.25 35.075 17.25ZM37.3625 17.25C36.9425 17.25 36.6 17.5869 36.6 18C36.6 18.4131 36.9425 18.75 37.3625 18.75C37.7825 18.75 38.125 18.4131 38.125 18C38.125 17.5869 37.7825 17.25 37.3625 17.25ZM39.65 17.25C39.23 17.25 38.8875 17.5869 38.8875 18C38.8875 18.4131 39.23 18.75 39.65 18.75C40.07 18.75 40.4125 18.4131 40.4125 18C40.4125 17.5869 40.07 17.25 39.65 17.25ZM41.9375 17.25C41.5175 17.25 41.175 17.5869 41.175 18C41.175 18.4131 41.5175 18.75 41.9375 18.75C42.3575 18.75 42.7 18.4131 42.7 18C42.7 17.5869 42.3575 17.25 41.9375 17.25ZM44.225 17.25C43.805 17.25 43.4625 17.5869 43.4625 18C43.4625 18.4131 43.805 18.75 44.225 18.75C44.645 18.75 44.9875 18.4131 44.9875 18C44.9875 17.5869 44.645 17.25 44.225 17.25ZM46.5125 17.25C46.0925 17.25 45.75 17.5869 45.75 18C45.75 18.4131 46.0925 18.75 46.5125 18.75C46.9325 18.75 47.275 18.4131 47.275 18C47.275 17.5869 46.9325 17.25 46.5125 17.25ZM48.8 17.25C48.38 17.25 48.0375 17.5869 48.0375 18C48.0375 18.4131 48.38 18.75 48.8 18.75C49.22 18.75 49.5625 18.4131 49.5625 18C49.5625 17.5869 49.22 17.25 48.8 17.25ZM11.4375 19.5C11.0175 19.5 10.675 19.8369 10.675 20.25C10.675 20.6631 11.0175 21 11.4375 21C11.8575 21 12.2 20.6631 12.2 20.25C12.2 19.8369 11.8575 19.5 11.4375 19.5ZM49.5625 19.5C49.1425 19.5 48.8 19.8369 48.8 20.25C48.8 20.6631 49.1425 21 49.5625 21C49.9825 21 50.325 20.6631 50.325 20.25C50.325 19.8369 49.9825 19.5 49.5625 19.5ZM9.9125 21C9.49253 21 9.15 21.3369 9.15 21.75C9.15 22.1631 9.49253 22.5 9.9125 22.5C10.3325 22.5 10.675 22.1631 10.675 21.75C10.675 21.3369 10.3325 21 9.9125 21ZM30.5 21C25.8773 21 22.1125 24.7031 22.1125 29.25C22.1125 33.7969 25.8773 37.5 30.5 37.5C35.1227 37.5 38.8875 33.7969 38.8875 29.25C38.8875 24.7031 35.1227 21 30.5 21ZM51.0875 21C50.6675 21 50.325 21.3369 50.325 21.75C50.325 22.1631 50.6675 22.5 51.0875 22.5C51.5075 22.5 51.85 22.1631 51.85 21.75C51.85 21.3369 51.5075 21 51.0875 21ZM7.625 21.75C7.20503 21.75 6.8625 22.0869 6.8625 22.5C6.8625 22.9131 7.20503 23.25 7.625 23.25C8.04497 23.25 8.3875 22.9131 8.3875 22.5C8.3875 22.0869 8.04497 21.75 7.625 21.75ZM53.375 21.75C52.955 21.75 52.6125 22.0869 52.6125 22.5C52.6125 22.9131 52.955 23.25 53.375 23.25C53.795 23.25 54.1375 22.9131 54.1375 22.5C54.1375 22.0869 53.795 21.75 53.375 21.75ZM30.5 22.5C34.2976 22.5 37.3625 25.5146 37.3625 29.25C37.3625 32.9853 34.2976 36 30.5 36C26.7024 36 23.6375 32.9853 23.6375 29.25C23.6375 25.5146 26.7024 22.5 30.5 22.5ZM7.625 24C7.20503 24 6.8625 24.3369 6.8625 24.75C6.8625 25.1631 7.20503 25.5 7.625 25.5C8.04497 25.5 8.3875 25.1631 8.3875 24.75C8.3875 24.3369 8.04497 24 7.625 24ZM53.375 24C52.955 24 52.6125 24.3369 52.6125 24.75C52.6125 25.1631 52.955 25.5 53.375 25.5C53.795 25.5 54.1375 25.1631 54.1375 24.75C54.1375 24.3369 53.795 24 53.375 24ZM7.625 26.25C7.20503 26.25 6.8625 26.5869 6.8625 27C6.8625 27.4131 7.20503 27.75 7.625 27.75C8.04497 27.75 8.3875 27.4131 8.3875 27C8.3875 26.5869 8.04497 26.25 7.625 26.25ZM14.4875 26.25C12.8106 26.25 11.4375 27.6006 11.4375 29.25C11.4375 30.8994 12.8106 32.25 14.4875 32.25C16.1644 32.25 17.5375 30.8994 17.5375 29.25C17.5375 27.6006 16.1644 26.25 14.4875 26.25ZM45.75 26.25C44.0731 26.25 42.7 27.6006 42.7 29.25C42.7 30.8994 44.0731 32.25 45.75 32.25C47.4269 32.25 48.8 30.8994 48.8 29.25C48.8 27.6006 47.4269 26.25 45.75 26.25ZM53.375 26.25C52.955 26.25 52.6125 26.5869 52.6125 27C52.6125 27.4131 52.955 27.75 53.375 27.75C53.795 27.75 54.1375 27.4131 54.1375 27C54.1375 26.5869 53.795 26.25 53.375 26.25ZM14.4875 27.75C15.3394 27.75 16.0125 28.4121 16.0125 29.25C16.0125 30.0879 15.3394 30.75 14.4875 30.75C13.6356 30.75 12.9625 30.0879 12.9625 29.25C12.9625 28.4121 13.6356 27.75 14.4875 27.75ZM45.75 27.75C46.6019 27.75 47.275 28.4121 47.275 29.25C47.275 30.0879 46.6019 30.75 45.75 30.75C44.8981 30.75 44.225 30.0879 44.225 29.25C44.225 28.4121 44.8981 27.75 45.75 27.75ZM7.625 28.5C7.20503 28.5 6.8625 28.8369 6.8625 29.25C6.8625 29.6631 7.20503 30 7.625 30C8.04497 30 8.3875 29.6631 8.3875 29.25C8.3875 28.8369 8.04497 28.5 7.625 28.5ZM53.375 28.5C52.955 28.5 52.6125 28.8369 52.6125 29.25C52.6125 29.6631 52.955 30 53.375 30C53.795 30 54.1375 29.6631 54.1375 29.25C54.1375 28.8369 53.795 28.5 53.375 28.5ZM7.625 30.75C7.20503 30.75 6.8625 31.0869 6.8625 31.5C6.8625 31.9131 7.20503 32.25 7.625 32.25C8.04497 32.25 8.3875 31.9131 8.3875 31.5C8.3875 31.0869 8.04497 30.75 7.625 30.75ZM53.375 30.75C52.955 30.75 52.6125 31.0869 52.6125 31.5C52.6125 31.9131 52.955 32.25 53.375 32.25C53.795 32.25 54.1375 31.9131 54.1375 31.5C54.1375 31.0869 53.795 30.75 53.375 30.75ZM7.625 33C7.20503 33 6.8625 33.3369 6.8625 33.75C6.8625 34.1631 7.20503 34.5 7.625 34.5C8.04497 34.5 8.3875 34.1631 8.3875 33.75C8.3875 33.3369 8.04497 33 7.625 33ZM7.625 35.25C7.20503 35.25 6.8625 35.5869 6.8625 36C6.8625 36.4131 7.20503 36.75 7.625 36.75C8.04497 36.75 8.3875 36.4131 8.3875 36C8.3875 35.5869 8.04497 35.25 7.625 35.25ZM9.9125 36C9.49253 36 9.15 36.3369 9.15 36.75C9.15 37.1631 9.49253 37.5 9.9125 37.5C10.3325 37.5 10.675 37.1631 10.675 36.75C10.675 36.3369 10.3325 36 9.9125 36ZM11.4375 37.5C11.0175 37.5 10.675 37.8369 10.675 38.25C10.675 38.6631 11.0175 39 11.4375 39C11.8575 39 12.2 38.6631 12.2 38.25C12.2 37.8369 11.8575 37.5 11.4375 37.5ZM12.2 39.75C11.78 39.75 11.4375 40.0869 11.4375 40.5C11.4375 40.9131 11.78 41.25 12.2 41.25C12.62 41.25 12.9625 40.9131 12.9625 40.5C12.9625 40.0869 12.62 39.75 12.2 39.75ZM14.4875 39.75C14.0675 39.75 13.725 40.0869 13.725 40.5C13.725 40.9131 14.0675 41.25 14.4875 41.25C14.9075 41.25 15.25 40.9131 15.25 40.5C15.25 40.0869 14.9075 39.75 14.4875 39.75ZM16.775 39.75C16.355 39.75 16.0125 40.0869 16.0125 40.5C16.0125 40.9131 16.355 41.25 16.775 41.25C17.195 41.25 17.5375 40.9131 17.5375 40.5C17.5375 40.0869 17.195 39.75 16.775 39.75ZM19.0625 39.75C18.6425 39.75 18.3 40.0869 18.3 40.5C18.3 40.9131 18.6425 41.25 19.0625 41.25C19.4825 41.25 19.825 40.9131 19.825 40.5C19.825 40.0869 19.4825 39.75 19.0625 39.75ZM21.35 39.75C20.93 39.75 20.5875 40.0869 20.5875 40.5C20.5875 40.9131 20.93 41.25 21.35 41.25C21.77 41.25 22.1125 40.9131 22.1125 40.5C22.1125 40.0869 21.77 39.75 21.35 39.75ZM23.6375 39.75C23.2175 39.75 22.875 40.0869 22.875 40.5C22.875 40.9131 23.2175 41.25 23.6375 41.25C24.0575 41.25 24.4 40.9131 24.4 40.5C24.4 40.0869 24.0575 39.75 23.6375 39.75ZM25.925 39.75C25.505 39.75 25.1625 40.0869 25.1625 40.5C25.1625 40.9131 25.505 41.25 25.925 41.25C26.345 41.25 26.6875 40.9131 26.6875 40.5C26.6875 40.0869 26.345 39.75 25.925 39.75ZM28.2125 39.75C27.7925 39.75 27.45 40.0869 27.45 40.5C27.45 40.9131 27.7925 41.25 28.2125 41.25C28.6325 41.25 28.975 40.9131 28.975 40.5C28.975 40.0869 28.6325 39.75 28.2125 39.75ZM30.5 39.75C30.08 39.75 29.7375 40.0869 29.7375 40.5C29.7375 40.9131 30.08 41.25 30.5 41.25C30.92 41.25 31.2625 40.9131 31.2625 40.5C31.2625 40.0869 30.92 39.75 30.5 39.75ZM32.7875 39.75C32.3675 39.75 32.025 40.0869 32.025 40.5C32.025 40.9131 32.3675 41.25 32.7875 41.25C33.2075 41.25 33.55 40.9131 33.55 40.5C33.55 40.0869 33.2075 39.75 32.7875 39.75ZM35.075 39.75C34.655 39.75 34.3125 40.0869 34.3125 40.5C34.3125 40.9131 34.655 41.25 35.075 41.25C35.495 41.25 35.8375 40.9131 35.8375 40.5C35.8375 40.0869 35.495 39.75 35.075 39.75ZM22.875 49.5C22.455 49.5 22.1125 49.8369 22.1125 50.25C22.1125 50.6631 22.455 51 22.875 51C23.295 51 23.6375 50.6631 23.6375 50.25C23.6375 49.8369 23.295 49.5 22.875 49.5ZM25.925 49.5C25.505 49.5 25.1625 49.8369 25.1625 50.25C25.1625 50.6631 25.505 51 25.925 51C26.345 51 26.6875 50.6631 26.6875 50.25C26.6875 49.8369 26.345 49.5 25.925 49.5Z"
            fill="white" />
        <path
            d="M27.45 10.5C27.03 10.5 26.6875 10.8369 26.6875 11.25C26.6875 11.6631 27.03 12 27.45 12C27.87 12 28.2125 11.6631 28.2125 11.25C28.2125 10.8369 27.87 10.5 27.45 10.5ZM33.55 10.5C33.13 10.5 32.7875 10.8369 32.7875 11.25C32.7875 11.6631 33.13 12 33.55 12C33.97 12 34.3125 11.6631 34.3125 11.25C34.3125 10.8369 33.97 10.5 33.55 10.5ZM12.2 17.25C11.78 17.25 11.4375 17.5869 11.4375 18C11.4375 18.4131 11.78 18.75 12.2 18.75C12.62 18.75 12.9625 18.4131 12.9625 18C12.9625 17.5869 12.62 17.25 12.2 17.25ZM14.4875 17.25C14.0675 17.25 13.725 17.5869 13.725 18C13.725 18.4131 14.0675 18.75 14.4875 18.75C14.9075 18.75 15.25 18.4131 15.25 18C15.25 17.5869 14.9075 17.25 14.4875 17.25ZM16.775 17.25C16.355 17.25 16.0125 17.5869 16.0125 18C16.0125 18.4131 16.355 18.75 16.775 18.75C17.195 18.75 17.5375 18.4131 17.5375 18C17.5375 17.5869 17.195 17.25 16.775 17.25ZM19.0625 17.25C18.6425 17.25 18.3 17.5869 18.3 18C18.3 18.4131 18.6425 18.75 19.0625 18.75C19.4825 18.75 19.825 18.4131 19.825 18C19.825 17.5869 19.4825 17.25 19.0625 17.25ZM21.35 17.25C20.93 17.25 20.5875 17.5869 20.5875 18C20.5875 18.4131 20.93 18.75 21.35 18.75C21.77 18.75 22.1125 18.4131 22.1125 18C22.1125 17.5869 21.77 17.25 21.35 17.25ZM23.6375 17.25C23.2175 17.25 22.875 17.5869 22.875 18C22.875 18.4131 23.2175 18.75 23.6375 18.75C24.0575 18.75 24.4 18.4131 24.4 18C24.4 17.5869 24.0575 17.25 23.6375 17.25ZM25.925 17.25C25.505 17.25 25.1625 17.5869 25.1625 18C25.1625 18.4131 25.505 18.75 25.925 18.75C26.345 18.75 26.6875 18.4131 26.6875 18C26.6875 17.5869 26.345 17.25 25.925 17.25ZM28.2125 17.25C27.7925 17.25 27.45 17.5869 27.45 18C27.45 18.4131 27.7925 18.75 28.2125 18.75C28.6325 18.75 28.975 18.4131 28.975 18C28.975 17.5869 28.6325 17.25 28.2125 17.25ZM30.5 17.25C30.08 17.25 29.7375 17.5869 29.7375 18C29.7375 18.4131 30.08 18.75 30.5 18.75C30.92 18.75 31.2625 18.4131 31.2625 18C31.2625 17.5869 30.92 17.25 30.5 17.25ZM32.7875 17.25C32.3675 17.25 32.025 17.5869 32.025 18C32.025 18.4131 32.3675 18.75 32.7875 18.75C33.2075 18.75 33.55 18.4131 33.55 18C33.55 17.5869 33.2075 17.25 32.7875 17.25ZM35.075 17.25C34.655 17.25 34.3125 17.5869 34.3125 18C34.3125 18.4131 34.655 18.75 35.075 18.75C35.495 18.75 35.8375 18.4131 35.8375 18C35.8375 17.5869 35.495 17.25 35.075 17.25ZM37.3625 17.25C36.9425 17.25 36.6 17.5869 36.6 18C36.6 18.4131 36.9425 18.75 37.3625 18.75C37.7825 18.75 38.125 18.4131 38.125 18C38.125 17.5869 37.7825 17.25 37.3625 17.25ZM39.65 17.25C39.23 17.25 38.8875 17.5869 38.8875 18C38.8875 18.4131 39.23 18.75 39.65 18.75C40.07 18.75 40.4125 18.4131 40.4125 18C40.4125 17.5869 40.07 17.25 39.65 17.25ZM41.9375 17.25C41.5175 17.25 41.175 17.5869 41.175 18C41.175 18.4131 41.5175 18.75 41.9375 18.75C42.3575 18.75 42.7 18.4131 42.7 18C42.7 17.5869 42.3575 17.25 41.9375 17.25ZM44.225 17.25C43.805 17.25 43.4625 17.5869 43.4625 18C43.4625 18.4131 43.805 18.75 44.225 18.75C44.645 18.75 44.9875 18.4131 44.9875 18C44.9875 17.5869 44.645 17.25 44.225 17.25ZM46.5125 17.25C46.0925 17.25 45.75 17.5869 45.75 18C45.75 18.4131 46.0925 18.75 46.5125 18.75C46.9325 18.75 47.275 18.4131 47.275 18C47.275 17.5869 46.9325 17.25 46.5125 17.25ZM48.8 17.25C48.38 17.25 48.0375 17.5869 48.0375 18C48.0375 18.4131 48.38 18.75 48.8 18.75C49.22 18.75 49.5625 18.4131 49.5625 18C49.5625 17.5869 49.22 17.25 48.8 17.25ZM11.4375 19.5C11.0175 19.5 10.675 19.8369 10.675 20.25C10.675 20.6631 11.0175 21 11.4375 21C11.8575 21 12.2 20.6631 12.2 20.25C12.2 19.8369 11.8575 19.5 11.4375 19.5ZM49.5625 19.5C49.1425 19.5 48.8 19.8369 48.8 20.25C48.8 20.6631 49.1425 21 49.5625 21C49.9825 21 50.325 20.6631 50.325 20.25C50.325 19.8369 49.9825 19.5 49.5625 19.5ZM9.9125 21C9.49253 21 9.15 21.3369 9.15 21.75C9.15 22.1631 9.49253 22.5 9.9125 22.5C10.3325 22.5 10.675 22.1631 10.675 21.75C10.675 21.3369 10.3325 21 9.9125 21ZM30.5 21C25.8773 21 22.1125 24.7031 22.1125 29.25C22.1125 33.7969 25.8773 37.5 30.5 37.5C35.1227 37.5 38.8875 33.7969 38.8875 29.25C38.8875 24.7031 35.1227 21 30.5 21ZM51.0875 21C50.6675 21 50.325 21.3369 50.325 21.75C50.325 22.1631 50.6675 22.5 51.0875 22.5C51.5075 22.5 51.85 22.1631 51.85 21.75C51.85 21.3369 51.5075 21 51.0875 21ZM7.625 21.75C7.20503 21.75 6.8625 22.0869 6.8625 22.5C6.8625 22.9131 7.20503 23.25 7.625 23.25C8.04497 23.25 8.3875 22.9131 8.3875 22.5C8.3875 22.0869 8.04497 21.75 7.625 21.75ZM53.375 21.75C52.955 21.75 52.6125 22.0869 52.6125 22.5C52.6125 22.9131 52.955 23.25 53.375 23.25C53.795 23.25 54.1375 22.9131 54.1375 22.5C54.1375 22.0869 53.795 21.75 53.375 21.75ZM30.5 22.5C34.2976 22.5 37.3625 25.5146 37.3625 29.25C37.3625 32.9853 34.2976 36 30.5 36C26.7024 36 23.6375 32.9853 23.6375 29.25C23.6375 25.5146 26.7024 22.5 30.5 22.5ZM7.625 24C7.20503 24 6.8625 24.3369 6.8625 24.75C6.8625 25.1631 7.20503 25.5 7.625 25.5C8.04497 25.5 8.3875 25.1631 8.3875 24.75C8.3875 24.3369 8.04497 24 7.625 24ZM53.375 24C52.955 24 52.6125 24.3369 52.6125 24.75C52.6125 25.1631 52.955 25.5 53.375 25.5C53.795 25.5 54.1375 25.1631 54.1375 24.75C54.1375 24.3369 53.795 24 53.375 24ZM7.625 26.25C7.20503 26.25 6.8625 26.5869 6.8625 27C6.8625 27.4131 7.20503 27.75 7.625 27.75C8.04497 27.75 8.3875 27.4131 8.3875 27C8.3875 26.5869 8.04497 26.25 7.625 26.25ZM14.4875 26.25C12.8106 26.25 11.4375 27.6006 11.4375 29.25C11.4375 30.8994 12.8106 32.25 14.4875 32.25C16.1644 32.25 17.5375 30.8994 17.5375 29.25C17.5375 27.6006 16.1644 26.25 14.4875 26.25ZM45.75 26.25C44.0731 26.25 42.7 27.6006 42.7 29.25C42.7 30.8994 44.0731 32.25 45.75 32.25C47.4269 32.25 48.8 30.8994 48.8 29.25C48.8 27.6006 47.4269 26.25 45.75 26.25ZM53.375 26.25C52.955 26.25 52.6125 26.5869 52.6125 27C52.6125 27.4131 52.955 27.75 53.375 27.75C53.795 27.75 54.1375 27.4131 54.1375 27C54.1375 26.5869 53.795 26.25 53.375 26.25ZM14.4875 27.75C15.3394 27.75 16.0125 28.4121 16.0125 29.25C16.0125 30.0879 15.3394 30.75 14.4875 30.75C13.6356 30.75 12.9625 30.0879 12.9625 29.25C12.9625 28.4121 13.6356 27.75 14.4875 27.75ZM45.75 27.75C46.6019 27.75 47.275 28.4121 47.275 29.25C47.275 30.0879 46.6019 30.75 45.75 30.75C44.8981 30.75 44.225 30.0879 44.225 29.25C44.225 28.4121 44.8981 27.75 45.75 27.75ZM7.625 28.5C7.20503 28.5 6.8625 28.8369 6.8625 29.25C6.8625 29.6631 7.20503 30 7.625 30C8.04497 30 8.3875 29.6631 8.3875 29.25C8.3875 28.8369 8.04497 28.5 7.625 28.5ZM53.375 28.5C52.955 28.5 52.6125 28.8369 52.6125 29.25C52.6125 29.6631 52.955 30 53.375 30C53.795 30 54.1375 29.6631 54.1375 29.25C54.1375 28.8369 53.795 28.5 53.375 28.5ZM7.625 30.75C7.20503 30.75 6.8625 31.0869 6.8625 31.5C6.8625 31.9131 7.20503 32.25 7.625 32.25C8.04497 32.25 8.3875 31.9131 8.3875 31.5C8.3875 31.0869 8.04497 30.75 7.625 30.75ZM53.375 30.75C52.955 30.75 52.6125 31.0869 52.6125 31.5C52.6125 31.9131 52.955 32.25 53.375 32.25C53.795 32.25 54.1375 31.9131 54.1375 31.5C54.1375 31.0869 53.795 30.75 53.375 30.75ZM7.625 33C7.20503 33 6.8625 33.3369 6.8625 33.75C6.8625 34.1631 7.20503 34.5 7.625 34.5C8.04497 34.5 8.3875 34.1631 8.3875 33.75C8.3875 33.3369 8.04497 33 7.625 33ZM7.625 35.25C7.20503 35.25 6.8625 35.5869 6.8625 36C6.8625 36.4131 7.20503 36.75 7.625 36.75C8.04497 36.75 8.3875 36.4131 8.3875 36C8.3875 35.5869 8.04497 35.25 7.625 35.25ZM9.9125 36C9.49253 36 9.15 36.3369 9.15 36.75C9.15 37.1631 9.49253 37.5 9.9125 37.5C10.3325 37.5 10.675 37.1631 10.675 36.75C10.675 36.3369 10.3325 36 9.9125 36ZM11.4375 37.5C11.0175 37.5 10.675 37.8369 10.675 38.25C10.675 38.6631 11.0175 39 11.4375 39C11.8575 39 12.2 38.6631 12.2 38.25C12.2 37.8369 11.8575 37.5 11.4375 37.5ZM12.2 39.75C11.78 39.75 11.4375 40.0869 11.4375 40.5C11.4375 40.9131 11.78 41.25 12.2 41.25C12.62 41.25 12.9625 40.9131 12.9625 40.5C12.9625 40.0869 12.62 39.75 12.2 39.75ZM14.4875 39.75C14.0675 39.75 13.725 40.0869 13.725 40.5C13.725 40.9131 14.0675 41.25 14.4875 41.25C14.9075 41.25 15.25 40.9131 15.25 40.5C15.25 40.0869 14.9075 39.75 14.4875 39.75ZM16.775 39.75C16.355 39.75 16.0125 40.0869 16.0125 40.5C16.0125 40.9131 16.355 41.25 16.775 41.25C17.195 41.25 17.5375 40.9131 17.5375 40.5C17.5375 40.0869 17.195 39.75 16.775 39.75ZM19.0625 39.75C18.6425 39.75 18.3 40.0869 18.3 40.5C18.3 40.9131 18.6425 41.25 19.0625 41.25C19.4825 41.25 19.825 40.9131 19.825 40.5C19.825 40.0869 19.4825 39.75 19.0625 39.75ZM21.35 39.75C20.93 39.75 20.5875 40.0869 20.5875 40.5C20.5875 40.9131 20.93 41.25 21.35 41.25C21.77 41.25 22.1125 40.9131 22.1125 40.5C22.1125 40.0869 21.77 39.75 21.35 39.75ZM23.6375 39.75C23.2175 39.75 22.875 40.0869 22.875 40.5C22.875 40.9131 23.2175 41.25 23.6375 41.25C24.0575 41.25 24.4 40.9131 24.4 40.5C24.4 40.0869 24.0575 39.75 23.6375 39.75ZM25.925 39.75C25.505 39.75 25.1625 40.0869 25.1625 40.5C25.1625 40.9131 25.505 41.25 25.925 41.25C26.345 41.25 26.6875 40.9131 26.6875 40.5C26.6875 40.0869 26.345 39.75 25.925 39.75ZM28.2125 39.75C27.7925 39.75 27.45 40.0869 27.45 40.5C27.45 40.9131 27.7925 41.25 28.2125 41.25C28.6325 41.25 28.975 40.9131 28.975 40.5C28.975 40.0869 28.6325 39.75 28.2125 39.75ZM30.5 39.75C30.08 39.75 29.7375 40.0869 29.7375 40.5C29.7375 40.9131 30.08 41.25 30.5 41.25C30.92 41.25 31.2625 40.9131 31.2625 40.5C31.2625 40.0869 30.92 39.75 30.5 39.75ZM32.7875 39.75C32.3675 39.75 32.025 40.0869 32.025 40.5C32.025 40.9131 32.3675 41.25 32.7875 41.25C33.2075 41.25 33.55 40.9131 33.55 40.5C33.55 40.0869 33.2075 39.75 32.7875 39.75ZM35.075 39.75C34.655 39.75 34.3125 40.0869 34.3125 40.5C34.3125 40.9131 34.655 41.25 35.075 41.25C35.495 41.25 35.8375 40.9131 35.8375 40.5C35.8375 40.0869 35.495 39.75 35.075 39.75ZM22.875 49.5C22.455 49.5 22.1125 49.8369 22.1125 50.25C22.1125 50.6631 22.455 51 22.875 51C23.295 51 23.6375 50.6631 23.6375 50.25C23.6375 49.8369 23.295 49.5 22.875 49.5ZM25.925 49.5C25.505 49.5 25.1625 49.8369 25.1625 50.25C25.1625 50.6631 25.505 51 25.925 51C26.345 51 26.6875 50.6631 26.6875 50.25C26.6875 49.8369 26.345 49.5 25.925 49.5Z"
            fill="#BD9457" />
    </svg>

    <svg id="talk" width="60" height="59" viewBox="0 0 60 59" fill="none"
        xmlns="http://www.w3.org/2000/svg">
        <path
            d="M22.5 5.1626C13.4355 5.1626 6 11.7338 6 19.9126C6 24.1676 8.06836 27.956 11.2734 30.638C10.7871 31.7385 10.1895 32.5336 9.62402 33.1501C9.30469 33.4987 9 33.8041 8.74219 34.144C8.48438 34.4811 8.25 34.8959 8.25 35.4001V36.1376H9C11.5664 36.1376 14.3701 34.9075 16.6699 33.6802C18.1436 34.1786 19.7109 34.5013 21.3486 34.6107C21.123 35.5816 21 36.5841 21 37.6126C21 45.7914 28.4355 52.3626 37.5 52.3626C39.5596 52.3626 41.5137 51.9938 43.3301 51.3802C45.6299 52.6075 48.4336 53.8376 51 53.8376H51.75V53.1001C51.75 52.5959 51.5156 52.1811 51.2578 51.844C51 51.5041 50.6953 51.1987 50.376 50.8501C49.8105 50.2336 49.2129 49.4385 48.7266 48.338C51.9316 45.656 54 41.8676 54 37.6126C54 29.7824 47.1855 23.4244 38.6484 22.8972C38.8711 21.935 39 20.9382 39 19.9126C39 11.7338 31.5645 5.1626 22.5 5.1626ZM22.5 6.6376C30.832 6.6376 37.5 12.6154 37.5 19.9126C37.5 27.2098 30.832 33.1876 22.5 33.1876C20.502 33.1876 18.6035 32.8333 16.8604 32.2081L16.5352 32.0929L16.2393 32.2542C14.4785 33.2106 12.4248 33.977 10.5586 34.3371C10.6289 34.2593 10.6611 34.2189 10.7373 34.1354C11.417 33.395 12.2959 32.3435 12.8906 30.736L13.0752 30.2347L12.6475 29.9063C9.4834 27.4604 7.5 23.8968 7.5 19.9126C7.5 12.6154 14.168 6.6376 22.5 6.6376ZM38.2148 24.3635C40.1191 24.4442 41.9326 24.8273 43.582 25.4755C43.5293 25.5792 43.5 25.6945 43.5 25.8126C43.5 26.2188 43.8369 26.5501 44.25 26.5501C44.5576 26.5501 44.833 26.3657 44.9443 26.0892C47.5225 27.3942 49.6025 29.3589 50.9268 31.7155C50.543 31.7529 50.25 32.0698 50.25 32.4501C50.25 32.8563 50.5869 33.1876 51 33.1876C51.2021 33.1876 51.3955 33.1069 51.5391 32.9658C52.1514 34.4148 52.5 35.9763 52.5 37.6126C52.5 41.5968 50.5166 45.1604 47.3525 47.6063L46.9248 47.9347L47.1094 48.436C47.7041 50.0435 48.583 51.095 49.2627 51.8354C49.3389 51.9189 49.3711 51.9593 49.4414 52.0371C47.5752 51.677 45.5215 50.9106 43.7607 49.9542L43.4648 49.7929L43.1396 49.9081C43.0107 49.9542 42.873 49.9888 42.7383 50.032C42.6797 49.6748 42.3662 49.4126 42 49.4126C41.5869 49.4126 41.25 49.7439 41.25 50.1501C41.25 50.248 41.2705 50.346 41.3086 50.4353C40.0898 50.7205 38.8213 50.8876 37.5 50.8876C37.9131 50.8876 38.25 50.5563 38.25 50.1501C38.25 49.7439 37.9131 49.4126 37.5 49.4126C37.0869 49.4126 36.75 49.7439 36.75 50.1501C36.75 50.5333 37.0459 50.8501 37.4326 50.8847C36.1377 50.879 34.8867 50.7176 33.6885 50.4382C33.7295 50.3489 33.75 50.2509 33.75 50.1501C33.75 49.7439 33.4131 49.4126 33 49.4126C32.6279 49.4126 32.3145 49.6805 32.2588 50.0406C26.543 48.1537 22.5 43.2908 22.5 37.6126C22.5 36.5928 22.6377 35.6046 22.8838 34.654C23.792 34.6338 24.6826 34.5502 25.5469 34.4062C25.5176 34.4869 25.5 34.5733 25.5 34.6626C25.5 35.0688 25.8369 35.4001 26.25 35.4001C26.6631 35.4001 27 35.0688 27 34.6626C27 34.4725 26.9238 34.291 26.792 34.1556C29.8037 33.4238 32.4814 31.9431 34.5586 29.9553C34.5205 30.0446 34.5 30.1396 34.5 30.2376C34.5 30.6438 34.8369 30.9751 35.25 30.9751C35.6631 30.9751 36 30.6438 36 30.2376C36 29.8314 35.6631 29.5001 35.25 29.5001C35.1504 29.5001 35.0537 29.5203 34.9629 29.5577C36.4131 28.0625 37.5234 26.2995 38.2148 24.3635ZM39.75 25.0751C39.3369 25.0751 39 25.4064 39 25.8126C39 26.2188 39.3369 26.5501 39.75 26.5501C40.1631 26.5501 40.5 26.2188 40.5 25.8126C40.5 25.4064 40.1631 25.0751 39.75 25.0751ZM37.5 27.2876C37.0869 27.2876 36.75 27.6189 36.75 28.0251C36.75 28.4313 37.0869 28.7626 37.5 28.7626C37.9131 28.7626 38.25 28.4313 38.25 28.0251C38.25 27.6189 37.9131 27.2876 37.5 27.2876ZM42 27.2876C41.5869 27.2876 41.25 27.6189 41.25 28.0251C41.25 28.4313 41.5869 28.7626 42 28.7626C42.4131 28.7626 42.75 28.4313 42.75 28.0251C42.75 27.6189 42.4131 27.2876 42 27.2876ZM46.5 27.2876C46.0869 27.2876 45.75 27.6189 45.75 28.0251C45.75 28.4313 46.0869 28.7626 46.5 28.7626C46.9131 28.7626 47.25 28.4313 47.25 28.0251C47.25 27.6189 46.9131 27.2876 46.5 27.2876ZM39.75 29.5001C39.3369 29.5001 39 29.8314 39 30.2376C39 30.6438 39.3369 30.9751 39.75 30.9751C40.1631 30.9751 40.5 30.6438 40.5 30.2376C40.5 29.8314 40.1631 29.5001 39.75 29.5001ZM44.25 29.5001C43.8369 29.5001 43.5 29.8314 43.5 30.2376C43.5 30.6438 43.8369 30.9751 44.25 30.9751C44.6631 30.9751 45 30.6438 45 30.2376C45 29.8314 44.6631 29.5001 44.25 29.5001ZM48.75 29.5001C48.3369 29.5001 48 29.8314 48 30.2376C48 30.6438 48.3369 30.9751 48.75 30.9751C49.1631 30.9751 49.5 30.6438 49.5 30.2376C49.5 29.8314 49.1631 29.5001 48.75 29.5001ZM33 31.7126C32.5869 31.7126 32.25 32.0439 32.25 32.4501C32.25 32.8563 32.5869 33.1876 33 33.1876C33.4131 33.1876 33.75 32.8563 33.75 32.4501C33.75 32.0439 33.4131 31.7126 33 31.7126ZM37.5 31.7126C37.0869 31.7126 36.75 32.0439 36.75 32.4501C36.75 32.8563 37.0869 33.1876 37.5 33.1876C37.9131 33.1876 38.25 32.8563 38.25 32.4501C38.25 32.0439 37.9131 31.7126 37.5 31.7126ZM42 31.7126C41.5869 31.7126 41.25 32.0439 41.25 32.4501C41.25 32.8563 41.5869 33.1876 42 33.1876C42.4131 33.1876 42.75 32.8563 42.75 32.4501C42.75 32.0439 42.4131 31.7126 42 31.7126ZM46.5 31.7126C46.0869 31.7126 45.75 32.0439 45.75 32.4501C45.75 32.8563 46.0869 33.1876 46.5 33.1876C46.9131 33.1876 47.25 32.8563 47.25 32.4501C47.25 32.0439 46.9131 31.7126 46.5 31.7126ZM30.75 33.9251C30.3369 33.9251 30 34.2564 30 34.6626C30 35.0688 30.3369 35.4001 30.75 35.4001C31.1631 35.4001 31.5 35.0688 31.5 34.6626C31.5 34.2564 31.1631 33.9251 30.75 33.9251ZM35.25 33.9251C34.8369 33.9251 34.5 34.2564 34.5 34.6626C34.5 35.0688 34.8369 35.4001 35.25 35.4001C35.6631 35.4001 36 35.0688 36 34.6626C36 34.2564 35.6631 33.9251 35.25 33.9251ZM39.75 33.9251C39.3369 33.9251 39 34.2564 39 34.6626C39 35.0688 39.3369 35.4001 39.75 35.4001C40.1631 35.4001 40.5 35.0688 40.5 34.6626C40.5 34.2564 40.1631 33.9251 39.75 33.9251ZM44.25 33.9251C43.8369 33.9251 43.5 34.2564 43.5 34.6626C43.5 35.0688 43.8369 35.4001 44.25 35.4001C44.6631 35.4001 45 35.0688 45 34.6626C45 34.2564 44.6631 33.9251 44.25 33.9251ZM48.75 33.9251C48.3369 33.9251 48 34.2564 48 34.6626C48 35.0688 48.3369 35.4001 48.75 35.4001C49.1631 35.4001 49.5 35.0688 49.5 34.6626C49.5 34.2564 49.1631 33.9251 48.75 33.9251ZM24 36.1376C23.5869 36.1376 23.25 36.4689 23.25 36.8751C23.25 37.2813 23.5869 37.6126 24 37.6126C24.4131 37.6126 24.75 37.2813 24.75 36.8751C24.75 36.4689 24.4131 36.1376 24 36.1376ZM28.5 36.1376C28.0869 36.1376 27.75 36.4689 27.75 36.8751C27.75 37.2813 28.0869 37.6126 28.5 37.6126C28.9131 37.6126 29.25 37.2813 29.25 36.8751C29.25 36.4689 28.9131 36.1376 28.5 36.1376ZM33 36.1376C32.5869 36.1376 32.25 36.4689 32.25 36.8751C32.25 37.2813 32.5869 37.6126 33 37.6126C33.4131 37.6126 33.75 37.2813 33.75 36.8751C33.75 36.4689 33.4131 36.1376 33 36.1376ZM37.5 36.1376C37.0869 36.1376 36.75 36.4689 36.75 36.8751C36.75 37.2813 37.0869 37.6126 37.5 37.6126C37.9131 37.6126 38.25 37.2813 38.25 36.8751C38.25 36.4689 37.9131 36.1376 37.5 36.1376ZM42 36.1376C41.5869 36.1376 41.25 36.4689 41.25 36.8751C41.25 37.2813 41.5869 37.6126 42 37.6126C42.4131 37.6126 42.75 37.2813 42.75 36.8751C42.75 36.4689 42.4131 36.1376 42 36.1376ZM46.5 36.1376C46.0869 36.1376 45.75 36.4689 45.75 36.8751C45.75 37.2813 46.0869 37.6126 46.5 37.6126C46.9131 37.6126 47.25 37.2813 47.25 36.8751C47.25 36.4689 46.9131 36.1376 46.5 36.1376ZM51 36.1376C50.5869 36.1376 50.25 36.4689 50.25 36.8751C50.25 37.2813 50.5869 37.6126 51 37.6126C51.4131 37.6126 51.75 37.2813 51.75 36.8751C51.75 36.4689 51.4131 36.1376 51 36.1376ZM26.25 38.3501C25.8369 38.3501 25.5 38.6814 25.5 39.0876C25.5 39.4938 25.8369 39.8251 26.25 39.8251C26.6631 39.8251 27 39.4938 27 39.0876C27 38.6814 26.6631 38.3501 26.25 38.3501ZM30.75 38.3501C30.3369 38.3501 30 38.6814 30 39.0876C30 39.4938 30.3369 39.8251 30.75 39.8251C31.1631 39.8251 31.5 39.4938 31.5 39.0876C31.5 38.6814 31.1631 38.3501 30.75 38.3501ZM35.25 38.3501C34.8369 38.3501 34.5 38.6814 34.5 39.0876C34.5 39.4938 34.8369 39.8251 35.25 39.8251C35.6631 39.8251 36 39.4938 36 39.0876C36 38.6814 35.6631 38.3501 35.25 38.3501ZM39.75 38.3501C39.3369 38.3501 39 38.6814 39 39.0876C39 39.4938 39.3369 39.8251 39.75 39.8251C40.1631 39.8251 40.5 39.4938 40.5 39.0876C40.5 38.6814 40.1631 38.3501 39.75 38.3501ZM44.25 38.3501C43.8369 38.3501 43.5 38.6814 43.5 39.0876C43.5 39.4938 43.8369 39.8251 44.25 39.8251C44.6631 39.8251 45 39.4938 45 39.0876C45 38.6814 44.6631 38.3501 44.25 38.3501ZM48.75 38.3501C48.3369 38.3501 48 38.6814 48 39.0876C48 39.4938 48.3369 39.8251 48.75 39.8251C49.1631 39.8251 49.5 39.4938 49.5 39.0876C49.5 38.6814 49.1631 38.3501 48.75 38.3501ZM24 40.5626C23.5869 40.5626 23.25 40.8939 23.25 41.3001C23.25 41.7063 23.5869 42.0376 24 42.0376C24.4131 42.0376 24.75 41.7063 24.75 41.3001C24.75 40.8939 24.4131 40.5626 24 40.5626ZM28.5 40.5626C28.0869 40.5626 27.75 40.8939 27.75 41.3001C27.75 41.7063 28.0869 42.0376 28.5 42.0376C28.9131 42.0376 29.25 41.7063 29.25 41.3001C29.25 40.8939 28.9131 40.5626 28.5 40.5626ZM33 40.5626C32.5869 40.5626 32.25 40.8939 32.25 41.3001C32.25 41.7063 32.5869 42.0376 33 42.0376C33.4131 42.0376 33.75 41.7063 33.75 41.3001C33.75 40.8939 33.4131 40.5626 33 40.5626ZM37.5 40.5626C37.0869 40.5626 36.75 40.8939 36.75 41.3001C36.75 41.7063 37.0869 42.0376 37.5 42.0376C37.9131 42.0376 38.25 41.7063 38.25 41.3001C38.25 40.8939 37.9131 40.5626 37.5 40.5626ZM42 40.5626C41.5869 40.5626 41.25 40.8939 41.25 41.3001C41.25 41.7063 41.5869 42.0376 42 42.0376C42.4131 42.0376 42.75 41.7063 42.75 41.3001C42.75 40.8939 42.4131 40.5626 42 40.5626ZM46.5 40.5626C46.0869 40.5626 45.75 40.8939 45.75 41.3001C45.75 41.7063 46.0869 42.0376 46.5 42.0376C46.9131 42.0376 47.25 41.7063 47.25 41.3001C47.25 40.8939 46.9131 40.5626 46.5 40.5626ZM51 40.5626C50.5869 40.5626 50.25 40.8939 50.25 41.3001C50.25 41.7063 50.5869 42.0376 51 42.0376C51.4131 42.0376 51.75 41.7063 51.75 41.3001C51.75 40.8939 51.4131 40.5626 51 40.5626ZM26.25 42.7751C25.8369 42.7751 25.5 43.1064 25.5 43.5126C25.5 43.9188 25.8369 44.2501 26.25 44.2501C26.6631 44.2501 27 43.9188 27 43.5126C27 43.1064 26.6631 42.7751 26.25 42.7751ZM30.75 42.7751C30.3369 42.7751 30 43.1064 30 43.5126C30 43.9188 30.3369 44.2501 30.75 44.2501C31.1631 44.2501 31.5 43.9188 31.5 43.5126C31.5 43.1064 31.1631 42.7751 30.75 42.7751ZM35.25 42.7751C34.8369 42.7751 34.5 43.1064 34.5 43.5126C34.5 43.9188 34.8369 44.2501 35.25 44.2501C35.6631 44.2501 36 43.9188 36 43.5126C36 43.1064 35.6631 42.7751 35.25 42.7751ZM39.75 42.7751C39.3369 42.7751 39 43.1064 39 43.5126C39 43.9188 39.3369 44.2501 39.75 44.2501C40.1631 44.2501 40.5 43.9188 40.5 43.5126C40.5 43.1064 40.1631 42.7751 39.75 42.7751ZM44.25 42.7751C43.8369 42.7751 43.5 43.1064 43.5 43.5126C43.5 43.9188 43.8369 44.2501 44.25 44.2501C44.6631 44.2501 45 43.9188 45 43.5126C45 43.1064 44.6631 42.7751 44.25 42.7751ZM48.75 42.7751C48.3369 42.7751 48 43.1064 48 43.5126C48 43.9188 48.3369 44.2501 48.75 44.2501C49.1631 44.2501 49.5 43.9188 49.5 43.5126C49.5 43.1064 49.1631 42.7751 48.75 42.7751ZM28.5 44.9876C28.0869 44.9876 27.75 45.3189 27.75 45.7251C27.75 46.1313 28.0869 46.4626 28.5 46.4626C28.9131 46.4626 29.25 46.1313 29.25 45.7251C29.25 45.3189 28.9131 44.9876 28.5 44.9876ZM33 44.9876C32.5869 44.9876 32.25 45.3189 32.25 45.7251C32.25 46.1313 32.5869 46.4626 33 46.4626C33.4131 46.4626 33.75 46.1313 33.75 45.7251C33.75 45.3189 33.4131 44.9876 33 44.9876ZM37.5 44.9876C37.0869 44.9876 36.75 45.3189 36.75 45.7251C36.75 46.1313 37.0869 46.4626 37.5 46.4626C37.9131 46.4626 38.25 46.1313 38.25 45.7251C38.25 45.3189 37.9131 44.9876 37.5 44.9876ZM42 44.9876C41.5869 44.9876 41.25 45.3189 41.25 45.7251C41.25 46.1313 41.5869 46.4626 42 46.4626C42.4131 46.4626 42.75 46.1313 42.75 45.7251C42.75 45.3189 42.4131 44.9876 42 44.9876ZM46.5 44.9876C46.0869 44.9876 45.75 45.3189 45.75 45.7251C45.75 46.1313 46.0869 46.4626 46.5 46.4626C46.9131 46.4626 47.25 46.1313 47.25 45.7251C47.25 45.3189 46.9131 44.9876 46.5 44.9876ZM30.75 47.2001C30.3369 47.2001 30 47.5314 30 47.9376C30 48.3438 30.3369 48.6751 30.75 48.6751C31.1631 48.6751 31.5 48.3438 31.5 47.9376C31.5 47.5314 31.1631 47.2001 30.75 47.2001ZM35.25 47.2001C34.8369 47.2001 34.5 47.5314 34.5 47.9376C34.5 48.3438 34.8369 48.6751 35.25 48.6751C35.6631 48.6751 36 48.3438 36 47.9376C36 47.5314 35.6631 47.2001 35.25 47.2001ZM39.75 47.2001C39.3369 47.2001 39 47.5314 39 47.9376C39 48.3438 39.3369 48.6751 39.75 48.6751C40.1631 48.6751 40.5 48.3438 40.5 47.9376C40.5 47.5314 40.1631 47.2001 39.75 47.2001ZM44.25 47.2001C43.8369 47.2001 43.5 47.5314 43.5 47.9376C43.5 48.3438 43.8369 48.6751 44.25 48.6751C44.6631 48.6751 45 48.3438 45 47.9376C45 47.5314 44.6631 47.2001 44.25 47.2001ZM46.5 49.4126C46.0869 49.4126 45.75 49.7439 45.75 50.1501C45.75 50.5563 46.0869 50.8876 46.5 50.8876C46.9131 50.8876 47.25 50.5563 47.25 50.1501C47.25 49.7439 46.9131 49.4126 46.5 49.4126Z"
            fill="white" />
        <path
            d="M39.75 25.0751C39.3369 25.0751 39 25.4064 39 25.8126C39 26.2188 39.3369 26.5501 39.75 26.5501C40.1631 26.5501 40.5 26.2188 40.5 25.8126C40.5 25.4064 40.1631 25.0751 39.75 25.0751ZM37.5 27.2876C37.0869 27.2876 36.75 27.6189 36.75 28.0251C36.75 28.4313 37.0869 28.7626 37.5 28.7626C37.9131 28.7626 38.25 28.4313 38.25 28.0251C38.25 27.6189 37.9131 27.2876 37.5 27.2876ZM42 27.2876C41.5869 27.2876 41.25 27.6189 41.25 28.0251C41.25 28.4313 41.5869 28.7626 42 28.7626C42.4131 28.7626 42.75 28.4313 42.75 28.0251C42.75 27.6189 42.4131 27.2876 42 27.2876ZM46.5 27.2876C46.0869 27.2876 45.75 27.6189 45.75 28.0251C45.75 28.4313 46.0869 28.7626 46.5 28.7626C46.9131 28.7626 47.25 28.4313 47.25 28.0251C47.25 27.6189 46.9131 27.2876 46.5 27.2876ZM39.75 29.5001C39.3369 29.5001 39 29.8314 39 30.2376C39 30.6438 39.3369 30.9751 39.75 30.9751C40.1631 30.9751 40.5 30.6438 40.5 30.2376C40.5 29.8314 40.1631 29.5001 39.75 29.5001ZM44.25 29.5001C43.8369 29.5001 43.5 29.8314 43.5 30.2376C43.5 30.6438 43.8369 30.9751 44.25 30.9751C44.6631 30.9751 45 30.6438 45 30.2376C45 29.8314 44.6631 29.5001 44.25 29.5001ZM48.75 29.5001C48.3369 29.5001 48 29.8314 48 30.2376C48 30.6438 48.3369 30.9751 48.75 30.9751C49.1631 30.9751 49.5 30.6438 49.5 30.2376C49.5 29.8314 49.1631 29.5001 48.75 29.5001ZM33 31.7126C32.5869 31.7126 32.25 32.0439 32.25 32.4501C32.25 32.8563 32.5869 33.1876 33 33.1876C33.4131 33.1876 33.75 32.8563 33.75 32.4501C33.75 32.0439 33.4131 31.7126 33 31.7126ZM37.5 31.7126C37.0869 31.7126 36.75 32.0439 36.75 32.4501C36.75 32.8563 37.0869 33.1876 37.5 33.1876C37.9131 33.1876 38.25 32.8563 38.25 32.4501C38.25 32.0439 37.9131 31.7126 37.5 31.7126ZM42 31.7126C41.5869 31.7126 41.25 32.0439 41.25 32.4501C41.25 32.8563 41.5869 33.1876 42 33.1876C42.4131 33.1876 42.75 32.8563 42.75 32.4501C42.75 32.0439 42.4131 31.7126 42 31.7126ZM46.5 31.7126C46.0869 31.7126 45.75 32.0439 45.75 32.4501C45.75 32.8563 46.0869 33.1876 46.5 33.1876C46.9131 33.1876 47.25 32.8563 47.25 32.4501C47.25 32.0439 46.9131 31.7126 46.5 31.7126ZM30.75 33.9251C30.3369 33.9251 30 34.2564 30 34.6626C30 35.0688 30.3369 35.4001 30.75 35.4001C31.1631 35.4001 31.5 35.0688 31.5 34.6626C31.5 34.2564 31.1631 33.9251 30.75 33.9251ZM35.25 33.9251C34.8369 33.9251 34.5 34.2564 34.5 34.6626C34.5 35.0688 34.8369 35.4001 35.25 35.4001C35.6631 35.4001 36 35.0688 36 34.6626C36 34.2564 35.6631 33.9251 35.25 33.9251ZM39.75 33.9251C39.3369 33.9251 39 34.2564 39 34.6626C39 35.0688 39.3369 35.4001 39.75 35.4001C40.1631 35.4001 40.5 35.0688 40.5 34.6626C40.5 34.2564 40.1631 33.9251 39.75 33.9251ZM44.25 33.9251C43.8369 33.9251 43.5 34.2564 43.5 34.6626C43.5 35.0688 43.8369 35.4001 44.25 35.4001C44.6631 35.4001 45 35.0688 45 34.6626C45 34.2564 44.6631 33.9251 44.25 33.9251ZM48.75 33.9251C48.3369 33.9251 48 34.2564 48 34.6626C48 35.0688 48.3369 35.4001 48.75 35.4001C49.1631 35.4001 49.5 35.0688 49.5 34.6626C49.5 34.2564 49.1631 33.9251 48.75 33.9251ZM24 36.1376C23.5869 36.1376 23.25 36.4689 23.25 36.8751C23.25 37.2813 23.5869 37.6126 24 37.6126C24.4131 37.6126 24.75 37.2813 24.75 36.8751C24.75 36.4689 24.4131 36.1376 24 36.1376ZM28.5 36.1376C28.0869 36.1376 27.75 36.4689 27.75 36.8751C27.75 37.2813 28.0869 37.6126 28.5 37.6126C28.9131 37.6126 29.25 37.2813 29.25 36.8751C29.25 36.4689 28.9131 36.1376 28.5 36.1376ZM33 36.1376C32.5869 36.1376 32.25 36.4689 32.25 36.8751C32.25 37.2813 32.5869 37.6126 33 37.6126C33.4131 37.6126 33.75 37.2813 33.75 36.8751C33.75 36.4689 33.4131 36.1376 33 36.1376ZM37.5 36.1376C37.0869 36.1376 36.75 36.4689 36.75 36.8751C36.75 37.2813 37.0869 37.6126 37.5 37.6126C37.9131 37.6126 38.25 37.2813 38.25 36.8751C38.25 36.4689 37.9131 36.1376 37.5 36.1376ZM42 36.1376C41.5869 36.1376 41.25 36.4689 41.25 36.8751C41.25 37.2813 41.5869 37.6126 42 37.6126C42.4131 37.6126 42.75 37.2813 42.75 36.8751C42.75 36.4689 42.4131 36.1376 42 36.1376ZM46.5 36.1376C46.0869 36.1376 45.75 36.4689 45.75 36.8751C45.75 37.2813 46.0869 37.6126 46.5 37.6126C46.9131 37.6126 47.25 37.2813 47.25 36.8751C47.25 36.4689 46.9131 36.1376 46.5 36.1376ZM51 36.1376C50.5869 36.1376 50.25 36.4689 50.25 36.8751C50.25 37.2813 50.5869 37.6126 51 37.6126C51.4131 37.6126 51.75 37.2813 51.75 36.8751C51.75 36.4689 51.4131 36.1376 51 36.1376ZM26.25 38.3501C25.8369 38.3501 25.5 38.6814 25.5 39.0876C25.5 39.4938 25.8369 39.8251 26.25 39.8251C26.6631 39.8251 27 39.4938 27 39.0876C27 38.6814 26.6631 38.3501 26.25 38.3501ZM30.75 38.3501C30.3369 38.3501 30 38.6814 30 39.0876C30 39.4938 30.3369 39.8251 30.75 39.8251C31.1631 39.8251 31.5 39.4938 31.5 39.0876C31.5 38.6814 31.1631 38.3501 30.75 38.3501ZM35.25 38.3501C34.8369 38.3501 34.5 38.6814 34.5 39.0876C34.5 39.4938 34.8369 39.8251 35.25 39.8251C35.6631 39.8251 36 39.4938 36 39.0876C36 38.6814 35.6631 38.3501 35.25 38.3501ZM39.75 38.3501C39.3369 38.3501 39 38.6814 39 39.0876C39 39.4938 39.3369 39.8251 39.75 39.8251C40.1631 39.8251 40.5 39.4938 40.5 39.0876C40.5 38.6814 40.1631 38.3501 39.75 38.3501ZM44.25 38.3501C43.8369 38.3501 43.5 38.6814 43.5 39.0876C43.5 39.4938 43.8369 39.8251 44.25 39.8251C44.6631 39.8251 45 39.4938 45 39.0876C45 38.6814 44.6631 38.3501 44.25 38.3501ZM48.75 38.3501C48.3369 38.3501 48 38.6814 48 39.0876C48 39.4938 48.3369 39.8251 48.75 39.8251C49.1631 39.8251 49.5 39.4938 49.5 39.0876C49.5 38.6814 49.1631 38.3501 48.75 38.3501ZM24 40.5626C23.5869 40.5626 23.25 40.8939 23.25 41.3001C23.25 41.7063 23.5869 42.0376 24 42.0376C24.4131 42.0376 24.75 41.7063 24.75 41.3001C24.75 40.8939 24.4131 40.5626 24 40.5626ZM28.5 40.5626C28.0869 40.5626 27.75 40.8939 27.75 41.3001C27.75 41.7063 28.0869 42.0376 28.5 42.0376C28.9131 42.0376 29.25 41.7063 29.25 41.3001C29.25 40.8939 28.9131 40.5626 28.5 40.5626ZM33 40.5626C32.5869 40.5626 32.25 40.8939 32.25 41.3001C32.25 41.7063 32.5869 42.0376 33 42.0376C33.4131 42.0376 33.75 41.7063 33.75 41.3001C33.75 40.8939 33.4131 40.5626 33 40.5626ZM37.5 40.5626C37.0869 40.5626 36.75 40.8939 36.75 41.3001C36.75 41.7063 37.0869 42.0376 37.5 42.0376C37.9131 42.0376 38.25 41.7063 38.25 41.3001C38.25 40.8939 37.9131 40.5626 37.5 40.5626ZM42 40.5626C41.5869 40.5626 41.25 40.8939 41.25 41.3001C41.25 41.7063 41.5869 42.0376 42 42.0376C42.4131 42.0376 42.75 41.7063 42.75 41.3001C42.75 40.8939 42.4131 40.5626 42 40.5626ZM46.5 40.5626C46.0869 40.5626 45.75 40.8939 45.75 41.3001C45.75 41.7063 46.0869 42.0376 46.5 42.0376C46.9131 42.0376 47.25 41.7063 47.25 41.3001C47.25 40.8939 46.9131 40.5626 46.5 40.5626ZM51 40.5626C50.5869 40.5626 50.25 40.8939 50.25 41.3001C50.25 41.7063 50.5869 42.0376 51 42.0376C51.4131 42.0376 51.75 41.7063 51.75 41.3001C51.75 40.8939 51.4131 40.5626 51 40.5626ZM26.25 42.7751C25.8369 42.7751 25.5 43.1064 25.5 43.5126C25.5 43.9188 25.8369 44.2501 26.25 44.2501C26.6631 44.2501 27 43.9188 27 43.5126C27 43.1064 26.6631 42.7751 26.25 42.7751ZM30.75 42.7751C30.3369 42.7751 30 43.1064 30 43.5126C30 43.9188 30.3369 44.2501 30.75 44.2501C31.1631 44.2501 31.5 43.9188 31.5 43.5126C31.5 43.1064 31.1631 42.7751 30.75 42.7751ZM35.25 42.7751C34.8369 42.7751 34.5 43.1064 34.5 43.5126C34.5 43.9188 34.8369 44.2501 35.25 44.2501C35.6631 44.2501 36 43.9188 36 43.5126C36 43.1064 35.6631 42.7751 35.25 42.7751ZM39.75 42.7751C39.3369 42.7751 39 43.1064 39 43.5126C39 43.9188 39.3369 44.2501 39.75 44.2501C40.1631 44.2501 40.5 43.9188 40.5 43.5126C40.5 43.1064 40.1631 42.7751 39.75 42.7751ZM44.25 42.7751C43.8369 42.7751 43.5 43.1064 43.5 43.5126C43.5 43.9188 43.8369 44.2501 44.25 44.2501C44.6631 44.2501 45 43.9188 45 43.5126C45 43.1064 44.6631 42.7751 44.25 42.7751ZM48.75 42.7751C48.3369 42.7751 48 43.1064 48 43.5126C48 43.9188 48.3369 44.2501 48.75 44.2501C49.1631 44.2501 49.5 43.9188 49.5 43.5126C49.5 43.1064 49.1631 42.7751 48.75 42.7751ZM28.5 44.9876C28.0869 44.9876 27.75 45.3189 27.75 45.7251C27.75 46.1313 28.0869 46.4626 28.5 46.4626C28.9131 46.4626 29.25 46.1313 29.25 45.7251C29.25 45.3189 28.9131 44.9876 28.5 44.9876ZM33 44.9876C32.5869 44.9876 32.25 45.3189 32.25 45.7251C32.25 46.1313 32.5869 46.4626 33 46.4626C33.4131 46.4626 33.75 46.1313 33.75 45.7251C33.75 45.3189 33.4131 44.9876 33 44.9876ZM37.5 44.9876C37.0869 44.9876 36.75 45.3189 36.75 45.7251C36.75 46.1313 37.0869 46.4626 37.5 46.4626C37.9131 46.4626 38.25 46.1313 38.25 45.7251C38.25 45.3189 37.9131 44.9876 37.5 44.9876ZM42 44.9876C41.5869 44.9876 41.25 45.3189 41.25 45.7251C41.25 46.1313 41.5869 46.4626 42 46.4626C42.4131 46.4626 42.75 46.1313 42.75 45.7251C42.75 45.3189 42.4131 44.9876 42 44.9876ZM46.5 44.9876C46.0869 44.9876 45.75 45.3189 45.75 45.7251C45.75 46.1313 46.0869 46.4626 46.5 46.4626C46.9131 46.4626 47.25 46.1313 47.25 45.7251C47.25 45.3189 46.9131 44.9876 46.5 44.9876ZM30.75 47.2001C30.3369 47.2001 30 47.5314 30 47.9376C30 48.3438 30.3369 48.6751 30.75 48.6751C31.1631 48.6751 31.5 48.3438 31.5 47.9376C31.5 47.5314 31.1631 47.2001 30.75 47.2001ZM35.25 47.2001C34.8369 47.2001 34.5 47.5314 34.5 47.9376C34.5 48.3438 34.8369 48.6751 35.25 48.6751C35.6631 48.6751 36 48.3438 36 47.9376C36 47.5314 35.6631 47.2001 35.25 47.2001ZM39.75 47.2001C39.3369 47.2001 39 47.5314 39 47.9376C39 48.3438 39.3369 48.6751 39.75 48.6751C40.1631 48.6751 40.5 48.3438 40.5 47.9376C40.5 47.5314 40.1631 47.2001 39.75 47.2001ZM44.25 47.2001C43.8369 47.2001 43.5 47.5314 43.5 47.9376C43.5 48.3438 43.8369 48.6751 44.25 48.6751C44.6631 48.6751 45 48.3438 45 47.9376C45 47.5314 44.6631 47.2001 44.25 47.2001ZM46.5 49.4126C46.0869 49.4126 45.75 49.7439 45.75 50.1501C45.75 50.5563 46.0869 50.8876 46.5 50.8876C46.9131 50.8876 47.25 50.5563 47.25 50.1501C47.25 49.7439 46.9131 49.4126 46.5 49.4126Z"
            fill="#BD9457" />
    </svg>

    <svg id="header_approve" width="60" height="59" viewBox="0 0 60 59" fill="none"
        xmlns="http://www.w3.org/2000/svg">
        <path
            d="M30 5.04736L29.625 5.26055L24.2314 8.3229H17.5664L14.2354 13.9982L8.46387 17.2737V23.8277L5.13281 29.5001L8.46387 35.1725V41.7265L14.2354 45.002L17.5664 50.6773H24.2314L30 53.9528L35.7686 50.6773H42.4336L45.7646 45.002L51.5361 41.7265V35.1725L54.8672 29.5001L51.5361 23.8277V17.2737L45.7646 13.9982L42.4336 8.3229H35.7686L30 5.04736ZM30 6.75283L35.3672 9.7979H41.5664L44.666 15.0785L50.0361 18.1265V24.2224L53.1328 29.5001L50.0361 34.7778V40.8737L44.666 43.9217L41.5664 49.2023H35.3672L30 52.2474L24.6328 49.2023H18.4336L15.334 43.9217L9.96387 40.8737V34.7778L6.86719 29.5001L9.96387 24.2224V18.1265L15.334 15.0785L18.4336 9.7979H24.6328L30 6.75283ZM30 8.8501C29.5869 8.8501 29.25 9.1814 29.25 9.5876C29.25 9.9938 29.5869 10.3251 30 10.3251C30.4131 10.3251 30.75 9.9938 30.75 9.5876C30.75 9.1814 30.4131 8.8501 30 8.8501ZM19.8574 11.5178C19.7314 11.5207 19.6084 11.5552 19.5 11.6157C19.3271 11.7137 19.2012 11.875 19.1484 12.0651C19.0986 12.2524 19.125 12.4541 19.2246 12.624C19.3242 12.794 19.4883 12.9179 19.6816 12.9668C19.8721 13.0187 20.0771 12.9928 20.25 12.8948C20.6074 12.6903 20.7305 12.238 20.5225 11.8865C20.3877 11.6532 20.1328 11.512 19.8574 11.5178ZM40.0898 11.5207C39.835 11.5322 39.6035 11.6705 39.4746 11.8894C39.2666 12.2409 39.3926 12.6903 39.75 12.8948C40.1074 13.0994 40.5674 12.9784 40.7725 12.6269C40.875 12.4569 40.9014 12.2553 40.8486 12.0651C40.7988 11.875 40.6729 11.7137 40.5 11.6157C40.377 11.5466 40.2334 11.512 40.0898 11.5207ZM30 11.8001C29.5869 11.8001 29.25 12.1314 29.25 12.5376C29.25 12.9438 29.5869 13.2751 30 13.2751C30.4131 13.2751 30.75 12.9438 30.75 12.5376C30.75 12.1314 30.4131 11.8001 30 11.8001ZM26.6367 12.1256C26.5869 12.1256 26.5371 12.1314 26.4873 12.14C26.083 12.2207 25.8193 12.6067 25.8984 13.0072C25.9805 13.4076 26.376 13.6669 26.7803 13.5862C27.1875 13.5056 27.4512 13.1195 27.3721 12.7191C27.3018 12.3763 26.9941 12.1285 26.6367 12.1256ZM33.3867 12.1256C33.0205 12.117 32.7012 12.3676 32.6309 12.7191C32.5488 13.1195 32.8125 13.5056 33.2197 13.5862C33.627 13.6669 34.0195 13.4076 34.1016 13.0072C34.1836 12.6067 33.9199 12.2207 33.5127 12.14C33.4717 12.1314 33.4277 12.1256 33.3867 12.1256ZM36.6182 13.0907C36.3076 13.0821 36.0264 13.2636 35.9062 13.543C35.833 13.7245 35.833 13.9291 35.9092 14.1105C35.9854 14.2892 36.1318 14.4332 36.3164 14.5081C36.6973 14.6637 37.1338 14.4851 37.292 14.1077C37.4531 13.7332 37.2715 13.301 36.8877 13.1455C36.8027 13.1109 36.7119 13.0907 36.6182 13.0907ZM23.4023 13.0907C23.3027 13.0907 23.2061 13.108 23.1123 13.1483C22.7285 13.3039 22.5469 13.7332 22.708 14.1105C22.8662 14.4851 23.3027 14.6637 23.6836 14.5081C23.8682 14.4361 24.0146 14.292 24.0908 14.1105C24.167 13.9291 24.167 13.7274 24.0938 13.5459C23.9766 13.2722 23.7041 13.0936 23.4023 13.0907ZM20.4258 14.6579C20.2734 14.655 20.124 14.6982 20.001 14.7818C19.6553 15.0094 19.5615 15.4646 19.793 15.8045C20.0215 16.1444 20.4873 16.2337 20.833 16.009C21 15.8996 21.1143 15.7325 21.1523 15.5395C21.1904 15.3464 21.1494 15.1477 21.0381 14.9834C20.9033 14.7818 20.6719 14.6608 20.4258 14.6579ZM39.5977 14.6579C39.3428 14.6521 39.1025 14.776 38.9619 14.9834C38.7305 15.3234 38.8242 15.7814 39.167 16.0062C39.5127 16.2337 39.9756 16.1416 40.207 15.8045C40.4385 15.4646 40.3447 15.0094 39.999 14.7818C39.8818 14.704 39.7412 14.6608 39.5977 14.6579ZM17.8125 16.7667C17.6104 16.7638 17.4141 16.8416 17.2734 16.9856C16.9805 17.2709 16.9805 17.7404 17.2734 18.0256C17.5635 18.3137 18.041 18.3137 18.3311 18.0256C18.624 17.7404 18.624 17.2709 18.3311 16.9856C18.1934 16.8474 18.0088 16.7725 17.8125 16.7667ZM42.208 16.7667C42.0059 16.7667 41.8096 16.8445 41.6689 16.9856C41.376 17.2709 41.376 17.7404 41.6689 18.0256C41.959 18.3137 42.4365 18.3137 42.7266 18.0256C43.0195 17.7404 43.0195 17.2709 42.7266 16.9856C42.5889 16.8474 42.4043 16.7696 42.208 16.7667ZM47.5195 18.8063C47.3936 18.8092 47.2705 18.8438 47.1592 18.9043C46.8018 19.1088 46.6787 19.5583 46.8867 19.9126C47.0947 20.2641 47.5518 20.3851 47.9092 20.1805C48.082 20.0854 48.208 19.9241 48.2607 19.734C48.3135 19.5438 48.2871 19.3422 48.1875 19.1751C48.0498 18.9417 47.792 18.8006 47.5195 18.8063ZM12.4277 18.8063C12.1729 18.8179 11.9414 18.9562 11.8125 19.1751C11.6045 19.5266 11.7305 19.9789 12.0879 20.1805C12.4453 20.3851 12.9053 20.2641 13.1133 19.9126C13.3184 19.5611 13.1953 19.1088 12.8379 18.9072C12.7148 18.8352 12.5713 18.8006 12.4277 18.8063ZM44.3525 19.3364C44.2002 19.3364 44.0508 19.3796 43.9248 19.4632C43.582 19.6879 43.4883 20.1459 43.7197 20.4859C43.9512 20.8229 44.4141 20.9151 44.7598 20.6875C45.1025 20.46 45.1963 20.0048 44.9648 19.6648C44.8301 19.4632 44.5986 19.3393 44.3525 19.3364ZM15.6709 19.3364C15.416 19.3335 15.1758 19.4574 15.0352 19.6677C14.8037 20.0048 14.8975 20.4628 15.2432 20.6875C15.5859 20.9151 16.0518 20.8229 16.2803 20.4859C16.3916 20.3246 16.4326 20.1229 16.3945 19.9328C16.3564 19.7397 16.2422 19.5698 16.0752 19.4632C15.9551 19.3825 15.8174 19.3393 15.6709 19.3364ZM37.7959 21.8197L28.0166 31.436L23.4697 27.3596L20.3232 30.9319L28.2334 37.8892L41.1855 25.1529L37.7959 21.8197ZM14.0771 22.272C13.7695 22.2634 13.4883 22.4449 13.3711 22.7243C13.21 23.1017 13.3916 23.5338 13.7754 23.6894C14.1592 23.845 14.5957 23.6664 14.7539 23.289C14.915 22.9145 14.7334 22.4823 14.3496 22.3268C14.2646 22.2922 14.1709 22.272 14.0771 22.272ZM45.9404 22.272C45.8408 22.2691 45.7441 22.2893 45.6504 22.3268C45.2666 22.4823 45.085 22.9145 45.2461 23.289C45.4043 23.6664 45.8408 23.845 46.2246 23.6894C46.6084 23.5338 46.79 23.1017 46.6289 22.7243C46.5146 22.4506 46.2422 22.272 45.9404 22.272ZM37.7959 23.9055L39.0645 25.1529L28.1748 35.861L22.4268 30.8022L23.5986 29.4713L28.0664 33.4757L37.7959 23.9055ZM13.1016 25.4554C12.7354 25.4438 12.416 25.6945 12.3457 26.0459C12.2637 26.4464 12.5273 26.8353 12.9346 26.916C13.3418 26.9937 13.7344 26.7345 13.8164 26.334C13.8545 26.1439 13.8164 25.9451 13.7051 25.7809C13.5938 25.6196 13.4238 25.5043 13.2275 25.4669C13.1865 25.4583 13.1426 25.4554 13.1016 25.4554ZM46.9219 25.4554C46.8721 25.4525 46.8223 25.4583 46.7725 25.4669C46.5791 25.5043 46.4062 25.6167 46.2949 25.7809C46.1865 25.9422 46.1455 26.141 46.1836 26.334C46.2217 26.5271 46.3359 26.6941 46.5029 26.8036C46.667 26.9131 46.8691 26.9534 47.0654 26.916C47.2617 26.8756 47.4316 26.7633 47.543 26.602C47.6543 26.4377 47.6953 26.239 47.6572 26.0459C47.5869 25.7031 47.2793 25.4554 46.9219 25.4554ZM9.75 28.7626C9.33691 28.7626 9 29.0939 9 29.5001C9 29.9063 9.33691 30.2376 9.75 30.2376C10.1631 30.2376 10.5 29.9063 10.5 29.5001C10.5 29.0939 10.1631 28.7626 9.75 28.7626ZM12.75 28.7626C12.3369 28.7626 12 29.0939 12 29.5001C12 29.9063 12.3369 30.2376 12.75 30.2376C13.1631 30.2376 13.5 29.9063 13.5 29.5001C13.5 29.0939 13.1631 28.7626 12.75 28.7626ZM47.25 28.7626C46.8369 28.7626 46.5 29.0939 46.5 29.5001C46.5 29.9063 46.8369 30.2376 47.25 30.2376C47.6631 30.2376 48 29.9063 48 29.5001C48 29.0939 47.6631 28.7626 47.25 28.7626ZM50.25 28.7626C49.8369 28.7626 49.5 29.0939 49.5 29.5001C49.5 29.9063 49.8369 30.2376 50.25 30.2376C50.6631 30.2376 51 29.9063 51 29.5001C51 29.0939 50.6631 28.7626 50.25 28.7626ZM46.9365 32.0698C46.5732 32.0612 46.2539 32.3118 46.1836 32.6662C46.1016 33.0637 46.3652 33.4526 46.7725 33.5333C47.1797 33.6111 47.5723 33.3518 47.6543 32.9542C47.7363 32.5538 47.4727 32.1649 47.0654 32.0842C47.0244 32.0785 46.9805 32.0727 46.9365 32.0698ZM13.0869 32.0727C13.0342 32.0727 12.9844 32.0756 12.9375 32.0842C12.7412 32.1246 12.5684 32.2369 12.457 32.3982C12.3486 32.5625 12.3076 32.7612 12.3457 32.9542C12.3838 33.1444 12.498 33.3144 12.665 33.4238C12.8291 33.5304 13.0312 33.5708 13.2275 33.5333C13.4238 33.4958 13.5938 33.3835 13.7051 33.2193C13.8164 33.058 13.8574 32.8592 13.8164 32.6662C13.749 32.3233 13.4414 32.0756 13.0869 32.0727ZM14.0713 35.2532C13.9688 35.2532 13.8691 35.2705 13.7783 35.3079C13.3945 35.4664 13.2129 35.8956 13.3711 36.273C13.5293 36.6504 13.9688 36.829 14.3525 36.6706C14.7334 36.515 14.915 36.0857 14.7568 35.7083C14.6426 35.4347 14.3701 35.2561 14.0713 35.2532ZM45.9521 35.2532C45.6445 35.2474 45.3633 35.426 45.2461 35.7083C45.085 36.0857 45.2666 36.515 45.6504 36.6706C45.835 36.7455 46.04 36.7455 46.2246 36.6706C46.4092 36.5957 46.5557 36.4516 46.6289 36.273C46.79 35.8956 46.6084 35.4635 46.2246 35.3079C46.1396 35.2733 46.0459 35.2561 45.9521 35.2532ZM44.3555 38.1859C44.1006 38.1801 43.8604 38.304 43.7197 38.5114C43.4883 38.8514 43.582 39.3094 43.9248 39.537C44.0918 39.6436 44.2939 39.6839 44.4902 39.6465C44.6865 39.6062 44.8564 39.4938 44.9678 39.3296C45.1963 38.9925 45.1055 38.5345 44.7598 38.3069C44.6396 38.2291 44.502 38.1859 44.3555 38.1859ZM15.668 38.1859C15.5156 38.183 15.3662 38.2262 15.2432 38.3098C14.8975 38.5374 14.8037 38.9925 15.0352 39.3325C15.2637 39.6724 15.7295 39.7617 16.0752 39.537C16.2422 39.4275 16.3564 39.2604 16.3945 39.0674C16.4326 38.8744 16.3916 38.6756 16.2803 38.5114C16.1455 38.3098 15.9141 38.1888 15.668 38.1859ZM12.4453 38.7188C12.3193 38.7217 12.1963 38.7563 12.0879 38.8168C11.7305 39.0213 11.6045 39.4708 11.8125 39.8251C11.9121 39.9922 12.0762 40.1161 12.2695 40.1679C12.46 40.2198 12.665 40.1938 12.8379 40.093C13.0107 39.998 13.1367 39.8366 13.1865 39.6465C13.2393 39.4563 13.2129 39.2547 13.1133 39.0876C12.9756 38.8542 12.7178 38.7131 12.4453 38.7188ZM47.499 38.7188C47.2441 38.7333 47.0127 38.8715 46.8867 39.0876C46.6787 39.4419 46.8018 39.8914 47.1592 40.0959C47.332 40.1938 47.5371 40.2198 47.7305 40.1708C47.9238 40.1189 48.0879 39.9951 48.1875 39.8251C48.2871 39.658 48.3135 39.4563 48.2607 39.2662C48.208 39.0761 48.082 38.9147 47.9092 38.8197C47.7861 38.7477 47.6426 38.7131 47.499 38.7188ZM17.8125 40.7556C17.6104 40.7527 17.4141 40.8305 17.2734 40.9717C16.9805 41.2598 16.9805 41.7265 17.2734 42.0146C17.5635 42.3026 18.041 42.3026 18.3311 42.0146C18.624 41.7265 18.624 41.2598 18.3311 40.9717C18.1934 40.8363 18.0088 40.7585 17.8125 40.7556ZM42.208 40.7585C42.0059 40.7527 41.8096 40.8305 41.666 40.9746C41.373 41.2598 41.373 41.7293 41.666 42.0146C41.959 42.3026 42.4336 42.3026 42.7266 42.0146C43.0195 41.7293 43.0195 41.2598 42.7266 40.9746C42.5889 40.8363 42.4043 40.7614 42.208 40.7585ZM39.5947 42.8644C39.4424 42.8644 39.293 42.9076 39.167 42.9912C38.8242 43.2159 38.7305 43.6739 38.9619 44.011C39.1934 44.3509 39.6562 44.4431 40.002 44.2155C40.3447 43.9879 40.4385 43.5328 40.207 43.1928C40.0723 42.9912 39.8408 42.8673 39.5947 42.8644ZM20.4316 42.8673C20.1768 42.8615 19.9365 42.9854 19.793 43.1928C19.5645 43.5328 19.6582 43.9879 20.001 44.2155C20.3467 44.4431 20.8096 44.3509 21.041 44.011C21.2725 43.6739 21.1787 43.2159 20.8359 42.9912C20.7158 42.9105 20.5752 42.8673 20.4316 42.8673ZM23.4141 44.4345C23.1064 44.4258 22.8252 44.6073 22.708 44.8868C22.5469 45.2642 22.7285 45.6963 23.1123 45.8519C23.4961 46.0074 23.9326 45.8288 24.0938 45.4514C24.252 45.0769 24.0703 44.6448 23.6865 44.4892C23.6016 44.4546 23.5078 44.4345 23.4141 44.4345ZM36.6094 44.4345C36.5068 44.4316 36.4072 44.4518 36.3164 44.4892C35.9326 44.6448 35.751 45.0769 35.9092 45.4514C36.0674 45.8288 36.5068 46.0074 36.8906 45.8519C37.2715 45.6963 37.4531 45.2642 37.2949 44.8868C37.1807 44.616 36.9082 44.4345 36.6094 44.4345ZM26.6572 45.3996C26.291 45.3909 25.9717 45.6416 25.8984 45.993C25.8604 46.186 25.9014 46.3848 26.0127 46.5461C26.124 46.7104 26.2939 46.8227 26.4902 46.8602C26.8975 46.9408 27.29 46.6815 27.3721 46.2811C27.4102 46.0881 27.3691 45.8893 27.2607 45.728C27.1494 45.5638 26.9766 45.4514 26.7803 45.414C26.7393 45.4053 26.6982 45.3996 26.6572 45.3996ZM33.3691 45.3996C33.3193 45.3996 33.2695 45.4053 33.2197 45.414C32.8125 45.4946 32.5488 45.8807 32.6309 46.2811C32.7129 46.6815 33.1055 46.9408 33.5127 46.8602C33.9199 46.7795 34.1836 46.3935 34.1016 45.993C34.0312 45.6502 33.7266 45.4024 33.3691 45.3996ZM30 45.7251C29.5869 45.7251 29.25 46.0564 29.25 46.4626C29.25 46.8688 29.5869 47.2001 30 47.2001C30.4131 47.2001 30.75 46.8688 30.75 46.4626C30.75 46.0564 30.4131 45.7251 30 45.7251ZM40.1045 46.0045C39.9814 46.0103 39.8584 46.042 39.75 46.1054C39.3896 46.3099 39.2666 46.7593 39.4746 47.1108C39.6826 47.4651 40.1396 47.5861 40.5 47.3845C40.6699 47.2865 40.7959 47.1252 40.8486 46.9351C40.9014 46.7449 40.875 46.5433 40.7725 46.3733C40.6377 46.1399 40.3799 45.9988 40.1045 46.0045ZM19.8398 46.0103C19.585 46.0218 19.3535 46.1601 19.2246 46.3762C19.125 46.5461 19.0986 46.7478 19.1484 46.9351C19.2012 47.1252 19.3271 47.2865 19.5 47.3845C19.8574 47.589 20.3174 47.4651 20.5225 47.1137C20.7305 46.7622 20.6074 46.3099 20.25 46.1054C20.124 46.0362 19.9834 46.0017 19.8398 46.0103ZM30 48.6751C29.5869 48.6751 29.25 49.0064 29.25 49.4126C29.25 49.8188 29.5869 50.1501 30 50.1501C30.4131 50.1501 30.75 49.8188 30.75 49.4126C30.75 49.0064 30.4131 48.6751 30 48.6751Z"
            fill="white" />
        <path
            d="M30 8.8501C29.5869 8.8501 29.25 9.1814 29.25 9.5876C29.25 9.9938 29.5869 10.3251 30 10.3251C30.4131 10.3251 30.75 9.9938 30.75 9.5876C30.75 9.1814 30.4131 8.8501 30 8.8501ZM19.8574 11.5178C19.7314 11.5207 19.6084 11.5552 19.5 11.6157C19.3271 11.7137 19.2012 11.875 19.1484 12.0651C19.0986 12.2524 19.125 12.4541 19.2246 12.624C19.3242 12.794 19.4883 12.9179 19.6816 12.9668C19.8721 13.0187 20.0771 12.9928 20.25 12.8948C20.6074 12.6903 20.7305 12.238 20.5225 11.8865C20.3877 11.6532 20.1328 11.512 19.8574 11.5178ZM40.0898 11.5207C39.835 11.5322 39.6035 11.6705 39.4746 11.8894C39.2666 12.2409 39.3926 12.6903 39.75 12.8948C40.1074 13.0994 40.5674 12.9784 40.7725 12.6269C40.875 12.4569 40.9014 12.2553 40.8486 12.0651C40.7988 11.875 40.6729 11.7137 40.5 11.6157C40.377 11.5466 40.2334 11.512 40.0898 11.5207ZM30 11.8001C29.5869 11.8001 29.25 12.1314 29.25 12.5376C29.25 12.9438 29.5869 13.2751 30 13.2751C30.4131 13.2751 30.75 12.9438 30.75 12.5376C30.75 12.1314 30.4131 11.8001 30 11.8001ZM26.6367 12.1256C26.5869 12.1256 26.5371 12.1314 26.4873 12.14C26.083 12.2207 25.8193 12.6067 25.8984 13.0072C25.9805 13.4076 26.376 13.6669 26.7803 13.5862C27.1875 13.5056 27.4512 13.1195 27.3721 12.7191C27.3018 12.3763 26.9941 12.1285 26.6367 12.1256ZM33.3867 12.1256C33.0205 12.117 32.7012 12.3676 32.6309 12.7191C32.5488 13.1195 32.8125 13.5056 33.2197 13.5862C33.627 13.6669 34.0195 13.4076 34.1016 13.0072C34.1836 12.6067 33.9199 12.2207 33.5127 12.14C33.4717 12.1314 33.4277 12.1256 33.3867 12.1256ZM36.6182 13.0907C36.3076 13.0821 36.0264 13.2636 35.9062 13.543C35.833 13.7245 35.833 13.9291 35.9092 14.1105C35.9854 14.2892 36.1318 14.4332 36.3164 14.5081C36.6973 14.6637 37.1338 14.4851 37.292 14.1077C37.4531 13.7332 37.2715 13.301 36.8877 13.1455C36.8027 13.1109 36.7119 13.0907 36.6182 13.0907ZM23.4023 13.0907C23.3027 13.0907 23.2061 13.108 23.1123 13.1483C22.7285 13.3039 22.5469 13.7332 22.708 14.1105C22.8662 14.4851 23.3027 14.6637 23.6836 14.5081C23.8682 14.4361 24.0146 14.292 24.0908 14.1105C24.167 13.9291 24.167 13.7274 24.0938 13.5459C23.9766 13.2722 23.7041 13.0936 23.4023 13.0907ZM20.4258 14.6579C20.2734 14.655 20.124 14.6982 20.001 14.7818C19.6553 15.0094 19.5615 15.4646 19.793 15.8045C20.0215 16.1444 20.4873 16.2337 20.833 16.009C21 15.8996 21.1143 15.7325 21.1523 15.5395C21.1904 15.3464 21.1494 15.1477 21.0381 14.9834C20.9033 14.7818 20.6719 14.6608 20.4258 14.6579ZM39.5977 14.6579C39.3428 14.6521 39.1025 14.776 38.9619 14.9834C38.7305 15.3234 38.8242 15.7814 39.167 16.0062C39.5127 16.2337 39.9756 16.1416 40.207 15.8045C40.4385 15.4646 40.3447 15.0094 39.999 14.7818C39.8818 14.704 39.7412 14.6608 39.5977 14.6579ZM17.8125 16.7667C17.6104 16.7638 17.4141 16.8416 17.2734 16.9856C16.9805 17.2708 16.9805 17.7404 17.2734 18.0256C17.5635 18.3137 18.041 18.3137 18.3311 18.0256C18.624 17.7404 18.624 17.2708 18.3311 16.9856C18.1934 16.8474 18.0088 16.7725 17.8125 16.7667ZM42.208 16.7667C42.0059 16.7667 41.8096 16.8445 41.6689 16.9856C41.376 17.2708 41.376 17.7404 41.6689 18.0256C41.959 18.3137 42.4365 18.3137 42.7266 18.0256C43.0195 17.7404 43.0195 17.2708 42.7266 16.9856C42.5889 16.8474 42.4043 16.7696 42.208 16.7667ZM47.5195 18.8063C47.3936 18.8092 47.2705 18.8438 47.1592 18.9043C46.8018 19.1088 46.6787 19.5583 46.8867 19.9126C47.0947 20.2641 47.5518 20.3851 47.9092 20.1805C48.082 20.0855 48.208 19.9241 48.2607 19.734C48.3135 19.5438 48.2871 19.3422 48.1875 19.1751C48.0498 18.9417 47.792 18.8006 47.5195 18.8063ZM12.4277 18.8063C12.1729 18.8179 11.9414 18.9562 11.8125 19.1751C11.6045 19.5266 11.7305 19.9789 12.0879 20.1805C12.4453 20.3851 12.9053 20.2641 13.1133 19.9126C13.3184 19.5611 13.1953 19.1088 12.8379 18.9072C12.7148 18.8352 12.5713 18.8006 12.4277 18.8063ZM44.3525 19.3364C44.2002 19.3364 44.0508 19.3796 43.9248 19.4632C43.582 19.6879 43.4883 20.1459 43.7197 20.4859C43.9512 20.8229 44.4141 20.9151 44.7598 20.6875C45.1025 20.46 45.1963 20.0048 44.9648 19.6648C44.8301 19.4632 44.5986 19.3393 44.3525 19.3364ZM15.6709 19.3364C15.416 19.3335 15.1758 19.4574 15.0352 19.6677C14.8037 20.0048 14.8975 20.4628 15.2432 20.6875C15.5859 20.9151 16.0518 20.8229 16.2803 20.4859C16.3916 20.3246 16.4326 20.1229 16.3945 19.9328C16.3564 19.7397 16.2422 19.5698 16.0752 19.4632C15.9551 19.3825 15.8174 19.3393 15.6709 19.3364ZM37.7959 21.8197L28.0166 31.436L23.4697 27.3596L20.3232 30.9319L28.2334 37.8892L41.1855 25.1529L37.7959 21.8197ZM14.0771 22.272C13.7695 22.2634 13.4883 22.4449 13.3711 22.7243C13.21 23.1017 13.3916 23.5338 13.7754 23.6894C14.1592 23.845 14.5957 23.6664 14.7539 23.289C14.915 22.9145 14.7334 22.4823 14.3496 22.3268C14.2646 22.2922 14.1709 22.272 14.0771 22.272ZM45.9404 22.272C45.8408 22.2691 45.7441 22.2893 45.6504 22.3268C45.2666 22.4823 45.085 22.9145 45.2461 23.289C45.4043 23.6664 45.8408 23.845 46.2246 23.6894C46.6084 23.5338 46.79 23.1017 46.6289 22.7243C46.5146 22.4506 46.2422 22.272 45.9404 22.272ZM37.7959 23.9055L39.0645 25.1529L28.1748 35.861L22.4268 30.8022L23.5986 29.4713L28.0664 33.4757L37.7959 23.9055ZM13.1016 25.4554C12.7354 25.4438 12.416 25.6945 12.3457 26.0459C12.2637 26.4464 12.5273 26.8353 12.9346 26.916C13.3418 26.9938 13.7344 26.7345 13.8164 26.334C13.8545 26.1439 13.8164 25.9451 13.7051 25.7809C13.5938 25.6196 13.4238 25.5043 13.2275 25.4669C13.1865 25.4583 13.1426 25.4554 13.1016 25.4554ZM46.9219 25.4554C46.8721 25.4525 46.8223 25.4583 46.7725 25.4669C46.5791 25.5043 46.4062 25.6167 46.2949 25.7809C46.1865 25.9422 46.1455 26.141 46.1836 26.334C46.2217 26.5271 46.3359 26.6941 46.5029 26.8036C46.667 26.9131 46.8691 26.9534 47.0654 26.916C47.2617 26.8756 47.4316 26.7633 47.543 26.602C47.6543 26.4377 47.6953 26.239 47.6572 26.0459C47.5869 25.7031 47.2793 25.4554 46.9219 25.4554ZM9.75 28.7626C9.33691 28.7626 9 29.0939 9 29.5001C9 29.9063 9.33691 30.2376 9.75 30.2376C10.1631 30.2376 10.5 29.9063 10.5 29.5001C10.5 29.0939 10.1631 28.7626 9.75 28.7626ZM12.75 28.7626C12.3369 28.7626 12 29.0939 12 29.5001C12 29.9063 12.3369 30.2376 12.75 30.2376C13.1631 30.2376 13.5 29.9063 13.5 29.5001C13.5 29.0939 13.1631 28.7626 12.75 28.7626ZM47.25 28.7626C46.8369 28.7626 46.5 29.0939 46.5 29.5001C46.5 29.9063 46.8369 30.2376 47.25 30.2376C47.6631 30.2376 48 29.9063 48 29.5001C48 29.0939 47.6631 28.7626 47.25 28.7626ZM50.25 28.7626C49.8369 28.7626 49.5 29.0939 49.5 29.5001C49.5 29.9063 49.8369 30.2376 50.25 30.2376C50.6631 30.2376 51 29.9063 51 29.5001C51 29.0939 50.6631 28.7626 50.25 28.7626ZM46.9365 32.0698C46.5732 32.0612 46.2539 32.3118 46.1836 32.6662C46.1016 33.0637 46.3652 33.4526 46.7725 33.5333C47.1797 33.6111 47.5723 33.3518 47.6543 32.9542C47.7363 32.5538 47.4727 32.1649 47.0654 32.0842C47.0244 32.0785 46.9805 32.0727 46.9365 32.0698ZM13.0869 32.0727C13.0342 32.0727 12.9844 32.0756 12.9375 32.0842C12.7412 32.1246 12.5684 32.2369 12.457 32.3982C12.3486 32.5625 12.3076 32.7612 12.3457 32.9542C12.3838 33.1444 12.498 33.3144 12.665 33.4238C12.8291 33.5304 13.0312 33.5708 13.2275 33.5333C13.4238 33.4958 13.5938 33.3835 13.7051 33.2193C13.8164 33.058 13.8574 32.8592 13.8164 32.6662C13.749 32.3233 13.4414 32.0756 13.0869 32.0727ZM14.0713 35.2532C13.9688 35.2532 13.8691 35.2705 13.7783 35.3079C13.3945 35.4664 13.2129 35.8956 13.3711 36.273C13.5293 36.6504 13.9688 36.829 14.3525 36.6706C14.7334 36.515 14.915 36.0857 14.7568 35.7083C14.6426 35.4347 14.3701 35.2561 14.0713 35.2532ZM45.9521 35.2532C45.6445 35.2474 45.3633 35.426 45.2461 35.7083C45.085 36.0857 45.2666 36.515 45.6504 36.6706C45.835 36.7455 46.04 36.7455 46.2246 36.6706C46.4092 36.5957 46.5557 36.4516 46.6289 36.273C46.79 35.8956 46.6084 35.4635 46.2246 35.3079C46.1396 35.2733 46.0459 35.2561 45.9521 35.2532ZM44.3555 38.1859C44.1006 38.1801 43.8604 38.304 43.7197 38.5114C43.4883 38.8514 43.582 39.3094 43.9248 39.537C44.0918 39.6436 44.2939 39.6839 44.4902 39.6465C44.6865 39.6062 44.8564 39.4938 44.9678 39.3296C45.1963 38.9925 45.1055 38.5345 44.7598 38.3069C44.6396 38.2291 44.502 38.1859 44.3555 38.1859ZM15.668 38.1859C15.5156 38.183 15.3662 38.2262 15.2432 38.3098C14.8975 38.5374 14.8037 38.9925 15.0352 39.3325C15.2637 39.6724 15.7295 39.7617 16.0752 39.537C16.2422 39.4275 16.3564 39.2604 16.3945 39.0674C16.4326 38.8744 16.3916 38.6756 16.2803 38.5114C16.1455 38.3098 15.9141 38.1888 15.668 38.1859ZM12.4453 38.7188C12.3193 38.7217 12.1963 38.7563 12.0879 38.8168C11.7305 39.0213 11.6045 39.4708 11.8125 39.8251C11.9121 39.9922 12.0762 40.1161 12.2695 40.1679C12.46 40.2198 12.665 40.1938 12.8379 40.093C13.0107 39.9979 13.1367 39.8366 13.1865 39.6465C13.2393 39.4563 13.2129 39.2547 13.1133 39.0876C12.9756 38.8542 12.7178 38.7131 12.4453 38.7188ZM47.499 38.7188C47.2441 38.7333 47.0127 38.8715 46.8867 39.0876C46.6787 39.4419 46.8018 39.8914 47.1592 40.0959C47.332 40.1938 47.5371 40.2198 47.7305 40.1708C47.9238 40.1189 48.0879 39.9951 48.1875 39.8251C48.2871 39.658 48.3135 39.4563 48.2607 39.2662C48.208 39.0761 48.082 38.9147 47.9092 38.8197C47.7861 38.7477 47.6426 38.7131 47.499 38.7188ZM17.8125 40.7556C17.6104 40.7527 17.4141 40.8305 17.2734 40.9717C16.9805 41.2598 16.9805 41.7265 17.2734 42.0146C17.5635 42.3026 18.041 42.3026 18.3311 42.0146C18.624 41.7265 18.624 41.2598 18.3311 40.9717C18.1934 40.8363 18.0088 40.7585 17.8125 40.7556ZM42.208 40.7585C42.0059 40.7527 41.8096 40.8305 41.666 40.9746C41.373 41.2598 41.373 41.7293 41.666 42.0146C41.959 42.3026 42.4336 42.3026 42.7266 42.0146C43.0195 41.7293 43.0195 41.2598 42.7266 40.9746C42.5889 40.8363 42.4043 40.7614 42.208 40.7585ZM39.5947 42.8644C39.4424 42.8644 39.293 42.9076 39.167 42.9912C38.8242 43.2159 38.7305 43.6739 38.9619 44.011C39.1934 44.3509 39.6562 44.4431 40.002 44.2155C40.3447 43.9879 40.4385 43.5328 40.207 43.1928C40.0723 42.9912 39.8408 42.8673 39.5947 42.8644ZM20.4316 42.8673C20.1768 42.8615 19.9365 42.9854 19.793 43.1928C19.5645 43.5328 19.6582 43.9879 20.001 44.2155C20.3467 44.4431 20.8096 44.3509 21.041 44.011C21.2725 43.6739 21.1787 43.2159 20.8359 42.9912C20.7158 42.9105 20.5752 42.8673 20.4316 42.8673ZM23.4141 44.4345C23.1064 44.4258 22.8252 44.6073 22.708 44.8868C22.5469 45.2642 22.7285 45.6963 23.1123 45.8519C23.4961 46.0074 23.9326 45.8288 24.0938 45.4514C24.252 45.0769 24.0703 44.6448 23.6865 44.4892C23.6016 44.4546 23.5078 44.4345 23.4141 44.4345ZM36.6094 44.4345C36.5068 44.4316 36.4072 44.4518 36.3164 44.4892C35.9326 44.6448 35.751 45.0769 35.9092 45.4514C36.0674 45.8288 36.5068 46.0074 36.8906 45.8519C37.2715 45.6963 37.4531 45.2642 37.2949 44.8868C37.1807 44.616 36.9082 44.4345 36.6094 44.4345ZM26.6572 45.3996C26.291 45.3909 25.9717 45.6416 25.8984 45.993C25.8604 46.186 25.9014 46.3848 26.0127 46.5461C26.124 46.7104 26.2939 46.8227 26.4902 46.8602C26.8975 46.9408 27.29 46.6815 27.3721 46.2811C27.4102 46.0881 27.3691 45.8893 27.2607 45.728C27.1494 45.5638 26.9766 45.4514 26.7803 45.414C26.7393 45.4053 26.6982 45.3996 26.6572 45.3996ZM33.3691 45.3996C33.3193 45.3996 33.2695 45.4053 33.2197 45.414C32.8125 45.4946 32.5488 45.8807 32.6309 46.2811C32.7129 46.6815 33.1055 46.9408 33.5127 46.8602C33.9199 46.7795 34.1836 46.3935 34.1016 45.993C34.0312 45.6502 33.7266 45.4024 33.3691 45.3996ZM30 45.7251C29.5869 45.7251 29.25 46.0564 29.25 46.4626C29.25 46.8688 29.5869 47.2001 30 47.2001C30.4131 47.2001 30.75 46.8688 30.75 46.4626C30.75 46.0564 30.4131 45.7251 30 45.7251ZM40.1045 46.0045C39.9814 46.0103 39.8584 46.042 39.75 46.1054C39.3896 46.3099 39.2666 46.7593 39.4746 47.1108C39.6826 47.4651 40.1396 47.5861 40.5 47.3845C40.6699 47.2865 40.7959 47.1252 40.8486 46.9351C40.9014 46.7449 40.875 46.5433 40.7725 46.3733C40.6377 46.1399 40.3799 45.9988 40.1045 46.0045ZM19.8398 46.0103C19.585 46.0218 19.3535 46.1601 19.2246 46.3762C19.125 46.5461 19.0986 46.7478 19.1484 46.9351C19.2012 47.1252 19.3271 47.2865 19.5 47.3845C19.8574 47.589 20.3174 47.4651 20.5225 47.1137C20.7305 46.7622 20.6074 46.3099 20.25 46.1054C20.124 46.0362 19.9834 46.0017 19.8398 46.0103ZM30 48.6751C29.5869 48.6751 29.25 49.0064 29.25 49.4126C29.25 49.8188 29.5869 50.1501 30 50.1501C30.4131 50.1501 30.75 49.8188 30.75 49.4126C30.75 49.0064 30.4131 48.6751 30 48.6751Z"
            fill="#BD9457" />
    </svg>



    



    
    <!-- reputation  block -->
    <symbol id="doc" width="64" height="64" viewBox="0 0 64 64" fill="none">
        <path d="M32 0.0234375C29.3125 0.0234375 26.625 0.285156 23.957 0.820313C21.7773 1.25391 20.1055 2.94922 19.6992 5.13281L17.0156 19.4336C16.9531 19.7578 17.0586 20.0898 17.293 20.3242C17.5156 20.5469 17.8281 20.6484 18.1406 20.6016C18.1172 21.0039 18.0977 21.4961 18.0781 22.1094C17.9375 22.1211 17.8086 22.1406 17.707 22.1719C16.7969 22.4102 16.168 23.2188 15.918 24.4297C15.7188 25.4102 15.7891 26.5977 16.0977 27.7812C16.6367 29.7695 17.7578 31.2695 18.9883 31.7305C19.3984 33 19.9375 34.2578 20.5977 35.4688L8.25 41.3789C4.46094 43.1992 2 47.0898 2 51.3008V59C2 60.6484 3.35156 62 5 62H59C60.6484 62 62 60.6484 62 59V51.3008C62 47.0898 59.5391 43.1992 55.75 41.3789L43.4023 35.4688C44.0586 34.2617 44.6016 33 45.0117 31.7305C46.2383 31.2695 47.3594 29.7695 47.9023 27.7812C48.2109 26.5977 48.2812 25.4102 48.0781 24.4297C47.8281 23.2188 47.1992 22.4102 46.2891 22.1719C46.1875 22.1406 46.0586 22.1211 45.9297 22.1094C45.9102 21.543 45.8906 21.0312 45.8711 20.6055C45.9141 20.6094 45.957 20.6172 46 20.6172C46.2617 20.6172 46.5156 20.5156 46.7031 20.3281C46.9414 20.0938 47.043 19.7578 46.9844 19.4336L44.3008 5.13281C43.8906 2.94922 42.2188 1.25391 40.0391 0.820313C37.3711 0.285156 34.6836 0.0234375 32 0.0234375ZM32 2.02344C34.5547 2.02344 37.1133 2.27344 39.6484 2.78125C41.0234 3.05469 42.0781 4.125 42.3359 5.5L44.7461 18.3594L39.7383 17.3945C34.6016 16.4102 29.3945 16.4102 24.2578 17.3945L19.2539 18.3594L21.6602 5.5C21.9219 4.125 22.9766 3.05469 24.3516 2.78125C26.8906 2.27344 29.4453 2.02344 32 2.02344ZM32 5C31.4453 5 31 5.44922 31 6V9H28C27.4453 9 27 9.44922 27 10C27 10.5508 27.4453 11 28 11H31V14C31 14.5508 31.4453 15 32 15C32.5547 15 33 14.5508 33 14V11H36C36.5547 11 37 10.5508 37 10C37 9.44922 36.5547 9 36 9H33V6C33 5.44922 32.5547 5 32 5ZM32 18.6562C34.4609 18.6562 36.918 18.8906 39.3633 19.3594L43.8398 20.2188C43.8867 20.8242 43.9219 22.0703 43.9375 22.6602C43.9492 23 43.957 23.2812 43.9688 23.4297C43.9883 23.7891 44.1914 24.1094 44.5117 24.2812C44.8281 24.4375 45.2109 24.4219 45.5117 24.2188C45.6914 24.1094 45.7812 24.0977 45.7812 24.0977C45.8086 24.1094 46 24.2812 46.1211 24.8281C46.25 25.5 46.1992 26.3906 45.9688 27.2617C45.7188 28.1797 45.3594 28.8398 45.0195 29.2617C44.6914 29.6797 44.3789 29.8789 44.2305 29.8789C43.7891 29.8789 43.3984 30.168 43.2695 30.5977C42.8711 31.9609 42.3008 33.3281 41.6094 34.6211C41.2891 35.2109 40.9492 35.7891 40.5664 36.3398C38.3984 39.5781 35.3594 42 32 42C28.6406 42 25.6016 39.5781 23.4297 36.3398C23.0508 35.7891 22.7109 35.2109 22.3906 34.6211C21.6992 33.3281 21.1289 31.9609 20.7305 30.5977C20.6016 30.168 20.2109 29.8789 19.7695 29.8789C19.4688 29.8789 18.5312 29.1016 18.0312 27.2617C17.8008 26.3906 17.75 25.5 17.8789 24.8281C18 24.2695 18.1914 24.1094 18.2109 24.0977C18.2227 24.0977 18.3008 24.1094 18.4883 24.2188C18.7891 24.4219 19.1719 24.4375 19.4883 24.2812C19.8086 24.1094 20.0078 23.7891 20.0312 23.4297L20.0508 22.7383C20.0742 22.1289 20.1211 20.8594 20.168 20.2188L24.6367 19.3594C27.0781 18.8906 29.5391 18.6562 32 18.6562ZM21.6289 37.1992C24.1719 41.0703 27.8516 44 32 44C36.1484 44 39.8281 41.0703 42.3711 37.1992L43.6289 37.8008L34.332 60H29.668L20.3711 37.8008L21.6289 37.1992ZM18.5625 38.668L27.4961 60H5C4.44922 60 4 59.5508 4 59V51.3008C4 47.8594 6.00781 44.668 9.11719 43.1797L18.5625 38.668ZM45.4375 38.668L54.8789 43.1797C57.9922 44.668 60 47.8594 60 51.3008V59C60 59.5508 59.5508 60 59 60H36.5039L45.4375 38.668ZM7 54C6.44531 54 6 54.4492 6 55V57C6 57.5508 6.44531 58 7 58C7.55469 58 8 57.5508 8 57V55C8 54.4492 7.55469 54 7 54ZM12 54C11.4453 54 11 54.4492 11 55V57C11 57.5508 11.4453 58 12 58C12.5547 58 13 57.5508 13 57V55C13 54.4492 12.5547 54 12 54ZM17 54C16.4453 54 16 54.4492 16 55V57C16 57.5508 16.4453 58 17 58C17.5547 58 18 57.5508 18 57V55C18 54.4492 17.5547 54 17 54ZM22 54C21.4453 54 21 54.4492 21 55V57C21 57.5508 21.4453 58 22 58C22.5547 58 23 57.5508 23 57V55C23 54.4492 22.5547 54 22 54ZM42 54C41.4453 54 41 54.4492 41 55V57C41 57.5508 41.4453 58 42 58C42.5547 58 43 57.5508 43 57V55C43 54.4492 42.5547 54 42 54ZM47 54C46.4453 54 46 54.4492 46 55V57C46 57.5508 46.4453 58 47 58C47.5547 58 48 57.5508 48 57V55C48 54.4492 47.5547 54 47 54ZM52 54C51.4453 54 51 54.4492 51 55V57C51 57.5508 51.4453 58 52 58C52.5547 58 53 57.5508 53 57V55C53 54.4492 52.5547 54 52 54ZM57 54C56.4453 54 56 54.4492 56 55V57C56 57.5508 56.4453 58 57 58C57.5547 58 58 57.5508 58 57V55C58 54.4492 57.5547 54 57 54Z" fill="black"/>
        <path d="M32 5C31.4453 5 31 5.44922 31 6V9H28C27.4453 9 27 9.44922 27 10C27 10.5508 27.4453 11 28 11H31V14C31 14.5508 31.4453 15 32 15C32.5547 15 33 14.5508 33 14V11H36C36.5547 11 37 10.5508 37 10C37 9.44922 36.5547 9 36 9H33V6C33 5.44922 32.5547 5 32 5ZM7 54C6.44531 54 6 54.4492 6 55V57C6 57.5508 6.44531 58 7 58C7.55469 58 8 57.5508 8 57V55C8 54.4492 7.55469 54 7 54ZM12 54C11.4453 54 11 54.4492 11 55V57C11 57.5508 11.4453 58 12 58C12.5547 58 13 57.5508 13 57V55C13 54.4492 12.5547 54 12 54ZM17 54C16.4453 54 16 54.4492 16 55V57C16 57.5508 16.4453 58 17 58C17.5547 58 18 57.5508 18 57V55C18 54.4492 17.5547 54 17 54ZM22 54C21.4453 54 21 54.4492 21 55V57C21 57.5508 21.4453 58 22 58C22.5547 58 23 57.5508 23 57V55C23 54.4492 22.5547 54 22 54ZM42 54C41.4453 54 41 54.4492 41 55V57C41 57.5508 41.4453 58 42 58C42.5547 58 43 57.5508 43 57V55C43 54.4492 42.5547 54 42 54ZM47 54C46.4453 54 46 54.4492 46 55V57C46 57.5508 46.4453 58 47 58C47.5547 58 48 57.5508 48 57V55C48 54.4492 47.5547 54 47 54ZM52 54C51.4453 54 51 54.4492 51 55V57C51 57.5508 51.4453 58 52 58C52.5547 58 53 57.5508 53 57V55C53 54.4492 52.5547 54 52 54ZM57 54C56.4453 54 56 54.4492 56 55V57C56 57.5508 56.4453 58 57 58C57.5547 58 58 57.5508 58 57V55C58 54.4492 57.5547 54 57 54Z" fill="#BD9457"/>
    </symbol>
    <symbol id="cash" width="64" height="64" viewBox="0 0 64 64" fill="none">
        <path d="M31 2C15.0117 2 2 15.0078 2 31C2 46.9922 15.0117 60 31 60C46.9883 60 60 46.9922 60 31C60 15.0078 46.9883 2 31 2ZM31 4C45.8867 4 58 16.1133 58 31C58 45.8867 45.8867 58 31 58C16.1133 58 4 45.8867 4 31C4 16.1133 16.1133 4 31 4ZM30.5625 8.00781C24.6719 8.125 18.9609 10.5117 14.7344 14.7344C5.76953 23.7031 5.76953 38.293 14.7344 47.2617C14.9297 47.457 15.1875 47.5547 15.4414 47.5547C15.6992 47.5547 15.957 47.457 16.1523 47.2617C16.543 46.8711 16.543 46.2383 16.1523 45.8477C7.96094 37.6602 7.96484 24.3398 16.1523 16.1523C20.8984 11.4023 27.6992 9.20312 34.3398 10.2656C34.8828 10.3555 35.3984 9.98047 35.4844 9.4375C35.5742 8.89062 35.1992 8.375 34.6562 8.28906C33.293 8.07031 31.9219 7.97656 30.5625 8.00781ZM38.6562 9.38672C38.2695 9.40234 37.9102 9.64844 37.7656 10.0352C37.5703 10.5547 37.832 11.1289 38.3516 11.3242C39.0664 11.5898 39.7695 11.8984 40.4531 12.2383C40.5977 12.3125 40.75 12.3477 40.9023 12.3477C41.2656 12.3477 41.6172 12.1484 41.7969 11.7969C42.043 11.3047 41.8438 10.7031 41.3516 10.4531C40.6094 10.0781 39.832 9.74219 39.0508 9.44922C38.9219 9.40234 38.7891 9.38281 38.6562 9.38672ZM44.4336 12.6758C44.1797 12.707 43.9375 12.832 43.7656 13.0508C43.4258 13.4844 43.5 14.1133 43.9375 14.4531C44.6055 14.9766 45.2461 15.5469 45.8477 16.1523C54.0391 24.3398 54.0391 37.6602 45.8477 45.8477C45.457 46.2422 45.457 46.8711 45.8477 47.2656C46.043 47.457 46.3008 47.5586 46.5586 47.5586C46.8125 47.5586 47.0703 47.457 47.2656 47.2656C56.2305 38.2969 56.2305 23.7031 47.2656 14.7344C46.6055 14.0781 45.9023 13.4531 45.1719 12.8789C44.9531 12.7109 44.6836 12.6445 44.4336 12.6758ZM28 18C26.8984 18 26 18.8984 26 20V32H24C23.4453 32 23 32.4492 23 33C23 33.5508 23.4453 34 24 34H26V36H24C23.4453 36 23 36.4492 23 37C23 37.5508 23.4453 38 24 38H26V43C26 43.5508 26.4453 44 27 44C27.5547 44 28 43.5508 28 43V34H34C37.3086 34 40 31.3086 40 28V24C40 20.6914 37.3086 18 34 18H28ZM28 20H34C36.207 20 38 21.793 38 24V28C38 30.207 36.207 32 34 32H28V20ZM30 36C29.4453 36 29 36.4492 29 37C29 37.5508 29.4453 38 30 38H36C36.5547 38 37 37.5508 37 37C37 36.4492 36.5547 36 36 36H30ZM21.375 48.3945C20.9844 48.3477 20.5898 48.5273 20.3867 48.8867L19.3867 50.6211C19.1094 51.0977 19.2734 51.707 19.75 51.9844C19.9062 52.0742 20.0781 52.1211 20.25 52.1211C20.5938 52.1211 20.9297 51.9414 21.1133 51.6211L22.1133 49.8867C22.3906 49.4102 22.2305 48.7969 21.75 48.5195C21.6289 48.4531 21.5039 48.4102 21.375 48.3945ZM40.625 48.3945C40.4961 48.4102 40.3672 48.4531 40.25 48.5195C39.7695 48.7969 39.6094 49.4102 39.8867 49.8906L40.8867 51.6211C41.0703 51.9414 41.4062 52.1211 41.75 52.1211C41.9219 52.1211 42.0938 52.0781 42.25 51.9844C42.7305 51.7109 42.8906 51.0977 42.6133 50.6211L41.6133 48.8906C41.4062 48.5312 41.0117 48.3477 40.625 48.3945ZM36.1875 50.3438C36.0586 50.3242 35.9219 50.332 35.7852 50.3711C35.2539 50.5117 34.9375 51.0625 35.0781 51.5938L35.5977 53.5273C35.7188 53.9727 36.1211 54.2695 36.5625 54.2695C36.6523 54.2695 36.7383 54.2578 36.8242 54.2344C37.3555 54.0898 37.6758 53.543 37.5312 53.0117L37.0156 51.0781C36.9062 50.6758 36.5703 50.3984 36.1875 50.3438ZM25.8164 50.3438C25.4297 50.3984 25.0938 50.6758 24.9844 51.0781L24.4688 53.0117C24.3242 53.543 24.6445 54.0898 25.1758 54.2344C25.2617 54.2578 25.3477 54.2695 25.4375 54.2695C25.875 54.2695 26.2812 53.9727 26.4023 53.5273L26.9219 51.5938C27.0625 51.0625 26.7461 50.5117 26.2148 50.3711C26.0781 50.332 25.9453 50.3281 25.8164 50.3438ZM31 51C30.4453 51 30 51.4492 30 52V54C30 54.5508 30.4453 55 31 55C31.5547 55 32 54.5508 32 54V52C32 51.4492 31.5547 51 31 51Z" fill="black"/>
        <path d="M30.6231 18C29.4183 18 28.4356 18.8984 28.4356 20V32H26.2481C25.6414 32 25.1544 32.4492 25.1544 33C25.1544 33.5508 25.6414 34 26.2481 34H28.4356V36H26.2481C25.6414 36 25.1544 36.4492 25.1544 37C25.1544 37.5508 25.6414 38 26.2481 38H28.4356V43C28.4356 43.5508 28.9227 44 29.5294 44C30.1361 44 30.6231 43.5508 30.6231 43V34H37.1856C40.8044 34 43.7481 31.3086 43.7481 28V24C43.7481 20.6914 40.8044 18 37.1856 18H30.6231ZM30.6231 20H37.1856C39.5996 20 41.5606 21.793 41.5606 24V28C41.5606 30.207 39.5996 32 37.1856 32H30.6231V20ZM32.8106 36C32.2039 36 31.7169 36.4492 31.7169 37C31.7169 37.5508 32.2039 38 32.8106 38H39.3731C39.9798 38 40.4669 37.5508 40.4669 37C40.4669 36.4492 39.9798 36 39.3731 36H32.8106ZM23.377 48.3945C22.9498 48.3477 22.5183 48.5273 22.2961 48.8867L21.2023 50.6211C20.899 51.0977 21.0784 51.707 21.5997 51.9844C21.7706 52.0742 21.9586 52.1211 22.1466 52.1211C22.5225 52.1211 22.89 51.9414 23.0908 51.6211L24.1845 49.8867C24.4879 49.4102 24.3127 48.7969 23.7872 48.5195C23.6547 48.4531 23.518 48.4102 23.377 48.3945ZM44.4317 48.3945C44.2907 48.4102 44.1497 48.4531 44.0216 48.5195C43.496 48.7969 43.3209 49.4102 43.6242 49.8906L44.718 51.6211C44.9188 51.9414 45.2862 52.1211 45.6622 52.1211C45.8502 52.1211 46.0382 52.0781 46.2091 51.9844C46.7346 51.7109 46.9097 51.0977 46.6064 50.6211L45.5126 48.8906C45.2862 48.5312 44.8547 48.3477 44.4317 48.3945ZM39.5782 50.3438C39.4372 50.3242 39.2877 50.332 39.1381 50.3711C38.5571 50.5117 38.211 51.0625 38.3648 51.5938L38.9331 53.5273C39.0655 53.9727 39.5056 54.2695 39.9883 54.2695C40.0866 54.2695 40.1806 54.2578 40.2746 54.2344C40.8557 54.0898 41.206 53.543 41.0479 53.0117L40.484 51.0781C40.3643 50.6758 39.9969 50.3984 39.5782 50.3438ZM28.2348 50.3438C27.8118 50.3984 27.4444 50.6758 27.3248 51.0781L26.7608 53.0117C26.6027 53.543 26.9531 54.0898 27.5341 54.2344C27.6281 54.2578 27.7221 54.2695 27.8204 54.2695C28.2989 54.2695 28.7432 53.9727 28.8757 53.5273L29.4439 51.5938C29.5977 51.0625 29.2517 50.5117 28.6706 50.3711C28.5211 50.332 28.3758 50.3281 28.2348 50.3438ZM33.9044 51C33.2977 51 32.8106 51.4492 32.8106 52V54C32.8106 54.5508 33.2977 55 33.9044 55C34.5111 55 34.9981 54.5508 34.9981 54V52C34.9981 51.4492 34.5111 51 33.9044 51Z" fill="#BD9457"/>
    </symbol>
    <symbol id="approve" width="64" height="64" viewBox="0 0 64 64" fill="none">
        <path d="M31 2C27.75 2 24.5625 2.53516 21.5156 3.58594C20.9961 3.76562 20.7188 4.33594 20.9023 4.85938C21.082 5.37891 21.6523 5.65625 22.1719 5.47656C25.0039 4.49609 27.9727 4 31 4C45.8867 4 58 16.1133 58 31C58 45.168 46.9375 57.0039 32.8125 57.9375C32.2617 57.9766 31.8477 58.4531 31.8867 59.0039C31.918 59.5312 32.3594 59.9375 32.8789 59.9375C32.9023 59.9375 32.9258 59.9375 32.9492 59.9375C48.1172 58.9297 60 46.2188 60 31C60 15.0078 46.9922 2 31 2ZM16.875 5.75781C16.75 5.77344 16.6211 5.81641 16.5 5.88281C16.0195 6.16016 15.8594 6.77344 16.1367 7.25L17.1367 8.98438C17.3203 9.30469 17.6562 9.48438 18 9.48438C18.1719 9.48438 18.3438 9.44141 18.5 9.35156C18.9805 9.07422 19.1406 8.46094 18.8633 7.98438L17.8633 6.25C17.6602 5.89453 17.2656 5.71094 16.875 5.75781ZM31.5312 8.00391C28.4023 7.92969 25.2812 8.49609 22.3711 9.67188C21.8555 9.87891 21.6133 10.4648 21.8164 10.9766C21.9766 11.3672 22.3477 11.6016 22.7461 11.6016C22.8711 11.6016 22.9961 11.5781 23.1211 11.5312C26.6641 10.0938 30.5469 9.65625 34.3398 10.2656C34.8867 10.3555 35.3984 9.98047 35.4844 9.4375C35.5703 8.89062 35.1992 8.375 34.6562 8.28906C33.6172 8.12109 32.5703 8.02734 31.5312 8.00391ZM12.3164 9.19531C12.0625 9.17969 11.8008 9.26562 11.5938 9.44922C11.1836 9.82031 11.1523 10.4531 11.5195 10.8594L12.8594 12.3477C13.0547 12.5664 13.3281 12.6758 13.6055 12.6758C13.8398 12.6758 14.082 12.5938 14.2695 12.4219C14.6836 12.0508 14.7148 11.418 14.3438 11.0117L13.0078 9.52344C12.8242 9.31641 12.5703 9.20703 12.3164 9.19531ZM38.6602 9.38672C38.2695 9.40234 37.9102 9.64844 37.7656 10.0352C37.5742 10.5547 37.8359 11.1289 38.3516 11.3242C39.0625 11.5898 39.7695 11.8945 40.4492 12.2383C40.5938 12.3125 40.75 12.3477 40.9023 12.3477C41.2656 12.3477 41.6172 12.1484 41.7969 11.7969C42.043 11.3047 41.8438 10.7031 41.3516 10.4531C40.6055 10.0781 39.832 9.74219 39.0508 9.44922C38.9219 9.40234 38.7891 9.38281 38.6602 9.38672ZM8.19141 13.5547C7.9375 13.5938 7.70312 13.7305 7.53906 13.9531C7.21484 14.3984 7.3125 15.0273 7.75781 15.3516L9.37891 16.5273C9.55469 16.6562 9.76172 16.7188 9.96484 16.7188C10.2734 16.7188 10.5781 16.5742 10.7773 16.3086C11.1016 15.8594 11 15.2344 10.5547 14.9062L8.9375 13.7344C8.71094 13.5703 8.44531 13.5156 8.19141 13.5547ZM5.4375 18.6094C5.05078 18.6055 4.67578 18.8281 4.50781 19.2031C4.28516 19.7109 4.50781 20.3008 5.01562 20.5273L6.84375 21.3398C6.97266 21.3984 7.10938 21.4258 7.24609 21.4258C7.62891 21.4258 7.99609 21.2031 8.16016 20.8281C8.38672 20.3242 8.16016 19.7344 7.65625 19.5117L5.82812 18.6992C5.69922 18.6406 5.57031 18.6133 5.4375 18.6094ZM43 22C42.7461 22 42.4883 22.0977 42.293 22.293L28 36.5859L20.707 29.293C20.3164 28.9023 19.6836 28.9023 19.293 29.293C18.9023 29.6836 18.9023 30.3164 19.293 30.707L27.293 38.707C27.4883 38.9023 27.7422 39 28 39C28.2578 39 28.5117 38.9023 28.707 38.707L43.707 23.707C44.0977 23.3164 44.0977 22.6836 43.707 22.293C43.5117 22.0977 43.2539 22 43 22ZM3.42188 24.1953C3.03906 24.2695 2.71875 24.5664 2.63281 24.9727C2.51953 25.5117 2.86328 26.043 3.40625 26.1562L5.35938 26.5742C5.42969 26.5859 5.5 26.5938 5.57031 26.5938C6.03125 26.5938 6.44531 26.2734 6.54688 25.8008C6.66016 25.2617 6.31641 24.7305 5.77344 24.6172L3.82031 24.2031C3.68359 24.1719 3.55078 24.1719 3.42188 24.1953ZM3 30C2.44922 30 2 30.4492 2 31C2 31.5508 2.44922 32 3 32H5C5.55078 32 6 31.5508 6 31C6 30.4492 5.55078 30 5 30H3ZM5.75781 35.4219C5.62891 35.3984 5.49219 35.3984 5.35938 35.4258L3.40234 35.8438C2.86328 35.957 2.51953 36.4883 2.63281 37.0312C2.73438 37.5 3.14844 37.8203 3.60938 37.8203C3.67969 37.8203 3.74609 37.8125 3.81641 37.7969L5.77344 37.3828C6.31641 37.2695 6.66016 36.7383 6.54688 36.1992C6.46094 35.793 6.13672 35.4961 5.75781 35.4219ZM7.23047 40.5742C7.10156 40.5781 6.96875 40.6055 6.84375 40.6602L5.01562 41.4727C4.51172 41.6992 4.28516 42.2891 4.50781 42.7969C4.67188 43.168 5.03906 43.3906 5.42188 43.3906C5.55859 43.3906 5.69531 43.3594 5.82812 43.3008L7.65625 42.4883C8.16016 42.2656 8.38672 41.6719 8.16406 41.168C7.99219 40.7891 7.62109 40.5664 7.23047 40.5742ZM10.1211 45.2969C9.86719 45.2539 9.60156 45.3086 9.375 45.4727L7.75781 46.6484C7.3125 46.9727 7.21484 47.6016 7.53906 48.0469C7.73438 48.3164 8.03906 48.457 8.35156 48.457C8.55469 48.457 8.75781 48.3984 8.9375 48.2656L10.5547 47.0938C11 46.7656 11.1016 46.1406 10.7773 45.6914C10.6133 45.4688 10.375 45.3359 10.1211 45.2969ZM13.5469 49.3242C13.293 49.3359 13.043 49.4492 12.8594 49.6523L11.5195 51.1406C11.1523 51.5469 11.1875 52.1797 11.5938 52.5508C11.7852 52.7227 12.0273 52.8086 12.2656 52.8086C12.5391 52.8086 12.8086 52.6953 13.0078 52.4766L14.3438 50.9883C14.7148 50.582 14.6797 49.9492 14.2695 49.5781C14.0664 49.3945 13.8047 49.3125 13.5469 49.3242ZM18.125 52.5234C17.7344 52.4766 17.3398 52.6562 17.1367 53.0156L16.1367 54.75C15.8594 55.2266 16.0234 55.8359 16.5 56.1133C16.6562 56.2031 16.8281 56.25 17 56.25C17.3438 56.25 17.6797 56.0703 17.8633 55.75L18.8633 54.0156C19.1406 53.5391 18.9805 52.9258 18.5 52.6523C18.3789 52.582 18.2539 52.5391 18.125 52.5234ZM22.8789 54.7305C22.4883 54.7656 22.1406 55.0234 22.0156 55.418L21.3945 57.3203C21.2266 57.8438 21.5117 58.4102 22.0352 58.5781C22.1406 58.6133 22.2461 58.6289 22.3477 58.6289C22.7695 58.6289 23.1602 58.3594 23.2969 57.9375L23.918 56.0352C24.0859 55.5117 23.7969 54.9453 23.2734 54.7773C23.1406 54.7344 23.0078 54.7188 22.8789 54.7305ZM28.3867 55.8633C27.8281 55.8086 27.3438 56.2031 27.2852 56.7539L27.0781 58.7422C27.0195 59.293 27.418 59.7852 27.9688 59.8438C28.0039 59.8438 28.0391 59.8438 28.0742 59.8438C28.5781 59.8438 29.0117 59.4648 29.0664 58.9492L29.2773 56.9609C29.3359 56.4141 28.9375 55.9219 28.3867 55.8633Z" fill="black"/>
        <path d="M31.5312 8.00401C28.4023 7.9298 25.2812 8.4962 22.3711 9.67198C21.8555 9.87901 21.6133 10.465 21.8164 10.9767C21.9766 11.3673 22.3477 11.6017 22.7461 11.6017C22.8711 11.6017 22.9961 11.5782 23.1211 11.5314C26.6641 10.0939 30.5469 9.65636 34.3398 10.2657C34.8867 10.3556 35.3984 9.98058 35.4844 9.43761C35.5703 8.89073 35.1992 8.37511 34.6562 8.28917C33.6172 8.1212 32.5703 8.02745 31.5312 8.00401ZM38.6602 9.38683C38.2695 9.40245 37.9102 9.64855 37.7656 10.0353C37.5742 10.5548 37.8359 11.129 38.3516 11.3243C39.0625 11.59 39.7695 11.8946 40.4492 12.2384C40.5938 12.3126 40.75 12.3478 40.9023 12.3478C41.2656 12.3478 41.6172 12.1485 41.7969 11.797C42.043 11.3048 41.8438 10.7032 41.3516 10.4532C40.6055 10.0782 39.832 9.74229 39.0508 9.44933C38.9219 9.40245 38.7891 9.38292 38.6602 9.38683ZM43 22.0001C42.7461 22.0001 42.4883 22.0978 42.293 22.2931L28 36.586L20.707 29.2931C20.3164 28.9025 19.6836 28.9025 19.293 29.2931C18.9023 29.6837 18.9023 30.3165 19.293 30.7071L27.293 38.7071C27.4883 38.9025 27.7422 39.0001 28 39.0001C28.2578 39.0001 28.5117 38.9025 28.707 38.7071L43.707 23.7071C44.0977 23.3165 44.0977 22.6837 43.707 22.2931C43.5117 22.0978 43.2539 22.0001 43 22.0001Z" fill="#BD9457"/>
    </symbol>
    <symbol id="fuenum1" width="88" height="88" viewBox="0 0 88 88" fill="none">
        <circle cx="44" cy="44" r="44" fill="white" fill-opacity="0.72"/>
        <circle cx="44" cy="44" r="32" fill="white"/>
        <path d="M40.016 52.192C38.688 52.192 37.504 51.856 36.464 51.184C35.44 50.496 34.632 49.504 34.04 48.208C33.448 46.912 33.152 45.376 33.152 43.6C33.152 41.824 33.448 40.288 34.04 38.992C34.632 37.696 35.44 36.712 36.464 36.04C37.504 35.352 38.688 35.008 40.016 35.008C41.328 35.008 42.496 35.352 43.52 36.04C44.56 36.712 45.376 37.696 45.968 38.992C46.56 40.288 46.856 41.824 46.856 43.6C46.856 45.376 46.56 46.912 45.968 48.208C45.376 49.504 44.56 50.496 43.52 51.184C42.496 51.856 41.328 52.192 40.016 52.192ZM40.016 50.056C41.36 50.056 42.432 49.504 43.232 48.4C44.048 47.296 44.456 45.696 44.456 43.6C44.456 41.504 44.048 39.904 43.232 38.8C42.432 37.696 41.36 37.144 40.016 37.144C38.656 37.144 37.568 37.696 36.752 38.8C35.952 39.904 35.552 41.504 35.552 43.6C35.552 45.696 35.952 47.296 36.752 48.4C37.568 49.504 38.656 50.056 40.016 50.056ZM54.2975 35.2V52H51.9215V37.288H48.1295V35.2H54.2975Z" fill="#BFAA86"/>
    </symbol>
    <symbol id="fuenum2" width="88" height="88" viewBox="0 0 88 88" fill="none">
        <circle cx="44" cy="44" r="44" fill="white" fill-opacity="0.72"/>
        <circle cx="44" cy="44" r="32" fill="white"/>
        <path d="M37.016 52.192C35.688 52.192 34.504 51.856 33.464 51.184C32.44 50.496 31.632 49.504 31.04 48.208C30.448 46.912 30.152 45.376 30.152 43.6C30.152 41.824 30.448 40.288 31.04 38.992C31.632 37.696 32.44 36.712 33.464 36.04C34.504 35.352 35.688 35.008 37.016 35.008C38.328 35.008 39.496 35.352 40.52 36.04C41.56 36.712 42.376 37.696 42.968 38.992C43.56 40.288 43.856 41.824 43.856 43.6C43.856 45.376 43.56 46.912 42.968 48.208C42.376 49.504 41.56 50.496 40.52 51.184C39.496 51.856 38.328 52.192 37.016 52.192ZM37.016 50.056C38.36 50.056 39.432 49.504 40.232 48.4C41.048 47.296 41.456 45.696 41.456 43.6C41.456 41.504 41.048 39.904 40.232 38.8C39.432 37.696 38.36 37.144 37.016 37.144C35.656 37.144 34.568 37.696 33.752 38.8C32.952 39.904 32.552 41.504 32.552 43.6C32.552 45.696 32.952 47.296 33.752 48.4C34.568 49.504 35.656 50.056 37.016 50.056ZM57.8975 49.912V52H45.8255V50.368L52.6655 43.768C53.4975 42.968 54.0575 42.28 54.3455 41.704C54.6335 41.112 54.7775 40.52 54.7775 39.928C54.7775 39.048 54.4655 38.368 53.8415 37.888C53.2335 37.392 52.3535 37.144 51.2015 37.144C49.3455 37.144 47.9135 37.752 46.9055 38.968L45.2735 37.552C45.9295 36.752 46.7855 36.128 47.8415 35.68C48.9135 35.232 50.1055 35.008 51.4175 35.008C53.1775 35.008 54.5775 35.432 55.6175 36.28C56.6575 37.112 57.1775 38.248 57.1775 39.688C57.1775 40.584 56.9855 41.432 56.6015 42.232C56.2175 43.032 55.4895 43.944 54.4175 44.968L49.2815 49.912H57.8975Z" fill="#BFAA86"/>
    </symbol>
    <symbol id="fuenum3" width="88" height="88" viewBox="0 0 88 88" fill="none">
        <circle cx="44" cy="44" r="44" fill="white" fill-opacity="0.72"/>
        <circle cx="44" cy="44" r="32" fill="white"/>
        <path d="M37.016 52.192C35.688 52.192 34.504 51.856 33.464 51.184C32.44 50.496 31.632 49.504 31.04 48.208C30.448 46.912 30.152 45.376 30.152 43.6C30.152 41.824 30.448 40.288 31.04 38.992C31.632 37.696 32.44 36.712 33.464 36.04C34.504 35.352 35.688 35.008 37.016 35.008C38.328 35.008 39.496 35.352 40.52 36.04C41.56 36.712 42.376 37.696 42.968 38.992C43.56 40.288 43.856 41.824 43.856 43.6C43.856 45.376 43.56 46.912 42.968 48.208C42.376 49.504 41.56 50.496 40.52 51.184C39.496 51.856 38.328 52.192 37.016 52.192ZM37.016 50.056C38.36 50.056 39.432 49.504 40.232 48.4C41.048 47.296 41.456 45.696 41.456 43.6C41.456 41.504 41.048 39.904 40.232 38.8C39.432 37.696 38.36 37.144 37.016 37.144C35.656 37.144 34.568 37.696 33.752 38.8C32.952 39.904 32.552 41.504 32.552 43.6C32.552 45.696 32.952 47.296 33.752 48.4C34.568 49.504 35.656 50.056 37.016 50.056ZM52.3574 42.256C54.0054 42.416 55.2614 42.928 56.1254 43.792C56.9894 44.64 57.4214 45.728 57.4214 47.056C57.4214 48.016 57.1814 48.888 56.7014 49.672C56.2214 50.44 55.5014 51.056 54.5414 51.52C53.5974 51.968 52.4374 52.192 51.0614 52.192C49.8614 52.192 48.7094 52.016 47.6054 51.664C46.5014 51.296 45.5974 50.792 44.8934 50.152L45.9974 48.256C46.5734 48.8 47.3094 49.24 48.2054 49.576C49.1014 49.896 50.0534 50.056 51.0614 50.056C52.3094 50.056 53.2774 49.792 53.9654 49.264C54.6694 48.736 55.0214 48.008 55.0214 47.08C55.0214 46.152 54.6774 45.432 53.9894 44.92C53.3014 44.408 52.2614 44.152 50.8694 44.152H49.5254V42.472L53.7494 37.288H45.6614V35.2H56.7494V36.832L52.3574 42.256Z" fill="#BFAA86"/>
    </symbol>

</svg>