<svg width="14" height="13" viewBox="0 0 14 13" fill="none" xmlns="http://www.w3.org/2000/svg">
<path d="M12.8497 0.122737C12.6713 0.131038 12.5032 0.182918 12.3538 0.241023H12.3517C12.2002 0.301204 11.4801 0.604183 10.3865 1.0628C9.29285 1.52349 7.87341 2.12115 6.46436 2.71466C3.65039 3.89959 0.884156 5.06585 0.884156 5.06585L0.917359 5.0534C0.917359 5.0534 0.726442 5.11566 0.527223 5.25262C0.425538 5.31903 0.313477 5.41034 0.215944 5.55352C0.118409 5.69671 0.0395517 5.91668 0.0686047 6.14288C0.116334 6.52679 0.365358 6.75714 0.543824 6.88372C0.724366 7.01239 0.896608 7.07257 0.896608 7.07257H0.900758L3.49475 7.94622C3.61096 8.31976 4.2854 10.5361 4.44727 11.0466C4.54273 11.3516 4.63611 11.5425 4.75232 11.6878C4.80835 11.7625 4.87476 11.8248 4.95361 11.8746C4.98474 11.8932 5.01795 11.9078 5.05115 11.9202C5.06152 11.9264 5.0719 11.9285 5.08435 11.9306L5.05737 11.9244C5.06567 11.9264 5.0719 11.9327 5.07813 11.9347C5.09888 11.941 5.1134 11.9431 5.14038 11.9472C5.55127 12.0717 5.88123 11.8165 5.88123 11.8165L5.8999 11.8019L7.4314 10.4074L9.99841 12.3768L10.0565 12.4017C10.5919 12.6362 11.1335 12.5054 11.4199 12.2751C11.7084 12.0427 11.8204 11.7459 11.8204 11.7459L11.8391 11.6982L13.823 1.53595C13.879 1.28485 13.8936 1.05035 13.8313 0.822078C13.769 0.593807 13.6093 0.380062 13.4163 0.265926C13.2212 0.149715 13.0282 0.114437 12.8497 0.122737ZM12.7958 1.21221C12.7937 1.24542 12.7999 1.24127 12.7854 1.3056V1.31182L10.8202 11.3682C10.8119 11.3827 10.7974 11.4139 10.7579 11.445C10.7164 11.4782 10.6832 11.499 10.511 11.4305L7.37122 9.02325L5.47449 10.7519L5.87293 8.2077C5.87293 8.2077 10.7911 3.62359 11.0028 3.42645C11.2145 3.2293 11.1439 3.1878 11.1439 3.1878C11.1584 2.94708 10.8243 3.11724 10.8243 3.11724L4.35596 7.12445L4.35388 7.11407L1.25354 6.07025V6.06817C1.25147 6.06817 1.24732 6.0661 1.24524 6.0661C1.24732 6.0661 1.26184 6.05987 1.26184 6.05987L1.27844 6.05157L1.29505 6.04534C1.29505 6.04534 4.06336 4.87909 6.87732 3.69415C8.28638 3.10064 9.70581 2.50299 10.7974 2.04229C11.8889 1.58367 12.6962 1.24749 12.7418 1.22882C12.7854 1.21221 12.7646 1.21221 12.7958 1.21221Z" fill="white"/>
</svg>
