<svg version="1.1" xmlns="http://www.w3.org/2000/svg" xmlns:xlink="http://www.w3.org/1999/xlink">
    <symbol id="doc" width="64" height="64" viewBox="0 0 64 64" fill="none">
        <path d="M32 0.0234375C29.3125 0.0234375 26.625 0.285156 23.957 0.820313C21.7773 1.25391 20.1055 2.94922 19.6992 5.13281L17.0156 19.4336C16.9531 19.7578 17.0586 20.0898 17.293 20.3242C17.5156 20.5469 17.8281 20.6484 18.1406 20.6016C18.1172 21.0039 18.0977 21.4961 18.0781 22.1094C17.9375 22.1211 17.8086 22.1406 17.707 22.1719C16.7969 22.4102 16.168 23.2188 15.918 24.4297C15.7188 25.4102 15.7891 26.5977 16.0977 27.7812C16.6367 29.7695 17.7578 31.2695 18.9883 31.7305C19.3984 33 19.9375 34.2578 20.5977 35.4688L8.25 41.3789C4.46094 43.1992 2 47.0898 2 51.3008V59C2 60.6484 3.35156 62 5 62H59C60.6484 62 62 60.6484 62 59V51.3008C62 47.0898 59.5391 43.1992 55.75 41.3789L43.4023 35.4688C44.0586 34.2617 44.6016 33 45.0117 31.7305C46.2383 31.2695 47.3594 29.7695 47.9023 27.7812C48.2109 26.5977 48.2812 25.4102 48.0781 24.4297C47.8281 23.2188 47.1992 22.4102 46.2891 22.1719C46.1875 22.1406 46.0586 22.1211 45.9297 22.1094C45.9102 21.543 45.8906 21.0312 45.8711 20.6055C45.9141 20.6094 45.957 20.6172 46 20.6172C46.2617 20.6172 46.5156 20.5156 46.7031 20.3281C46.9414 20.0938 47.043 19.7578 46.9844 19.4336L44.3008 5.13281C43.8906 2.94922 42.2188 1.25391 40.0391 0.820313C37.3711 0.285156 34.6836 0.0234375 32 0.0234375ZM32 2.02344C34.5547 2.02344 37.1133 2.27344 39.6484 2.78125C41.0234 3.05469 42.0781 4.125 42.3359 5.5L44.7461 18.3594L39.7383 17.3945C34.6016 16.4102 29.3945 16.4102 24.2578 17.3945L19.2539 18.3594L21.6602 5.5C21.9219 4.125 22.9766 3.05469 24.3516 2.78125C26.8906 2.27344 29.4453 2.02344 32 2.02344ZM32 5C31.4453 5 31 5.44922 31 6V9H28C27.4453 9 27 9.44922 27 10C27 10.5508 27.4453 11 28 11H31V14C31 14.5508 31.4453 15 32 15C32.5547 15 33 14.5508 33 14V11H36C36.5547 11 37 10.5508 37 10C37 9.44922 36.5547 9 36 9H33V6C33 5.44922 32.5547 5 32 5ZM32 18.6562C34.4609 18.6562 36.918 18.8906 39.3633 19.3594L43.8398 20.2188C43.8867 20.8242 43.9219 22.0703 43.9375 22.6602C43.9492 23 43.957 23.2812 43.9688 23.4297C43.9883 23.7891 44.1914 24.1094 44.5117 24.2812C44.8281 24.4375 45.2109 24.4219 45.5117 24.2188C45.6914 24.1094 45.7812 24.0977 45.7812 24.0977C45.8086 24.1094 46 24.2812 46.1211 24.8281C46.25 25.5 46.1992 26.3906 45.9688 27.2617C45.7188 28.1797 45.3594 28.8398 45.0195 29.2617C44.6914 29.6797 44.3789 29.8789 44.2305 29.8789C43.7891 29.8789 43.3984 30.168 43.2695 30.5977C42.8711 31.9609 42.3008 33.3281 41.6094 34.6211C41.2891 35.2109 40.9492 35.7891 40.5664 36.3398C38.3984 39.5781 35.3594 42 32 42C28.6406 42 25.6016 39.5781 23.4297 36.3398C23.0508 35.7891 22.7109 35.2109 22.3906 34.6211C21.6992 33.3281 21.1289 31.9609 20.7305 30.5977C20.6016 30.168 20.2109 29.8789 19.7695 29.8789C19.4688 29.8789 18.5312 29.1016 18.0312 27.2617C17.8008 26.3906 17.75 25.5 17.8789 24.8281C18 24.2695 18.1914 24.1094 18.2109 24.0977C18.2227 24.0977 18.3008 24.1094 18.4883 24.2188C18.7891 24.4219 19.1719 24.4375 19.4883 24.2812C19.8086 24.1094 20.0078 23.7891 20.0312 23.4297L20.0508 22.7383C20.0742 22.1289 20.1211 20.8594 20.168 20.2188L24.6367 19.3594C27.0781 18.8906 29.5391 18.6562 32 18.6562ZM21.6289 37.1992C24.1719 41.0703 27.8516 44 32 44C36.1484 44 39.8281 41.0703 42.3711 37.1992L43.6289 37.8008L34.332 60H29.668L20.3711 37.8008L21.6289 37.1992ZM18.5625 38.668L27.4961 60H5C4.44922 60 4 59.5508 4 59V51.3008C4 47.8594 6.00781 44.668 9.11719 43.1797L18.5625 38.668ZM45.4375 38.668L54.8789 43.1797C57.9922 44.668 60 47.8594 60 51.3008V59C60 59.5508 59.5508 60 59 60H36.5039L45.4375 38.668ZM7 54C6.44531 54 6 54.4492 6 55V57C6 57.5508 6.44531 58 7 58C7.55469 58 8 57.5508 8 57V55C8 54.4492 7.55469 54 7 54ZM12 54C11.4453 54 11 54.4492 11 55V57C11 57.5508 11.4453 58 12 58C12.5547 58 13 57.5508 13 57V55C13 54.4492 12.5547 54 12 54ZM17 54C16.4453 54 16 54.4492 16 55V57C16 57.5508 16.4453 58 17 58C17.5547 58 18 57.5508 18 57V55C18 54.4492 17.5547 54 17 54ZM22 54C21.4453 54 21 54.4492 21 55V57C21 57.5508 21.4453 58 22 58C22.5547 58 23 57.5508 23 57V55C23 54.4492 22.5547 54 22 54ZM42 54C41.4453 54 41 54.4492 41 55V57C41 57.5508 41.4453 58 42 58C42.5547 58 43 57.5508 43 57V55C43 54.4492 42.5547 54 42 54ZM47 54C46.4453 54 46 54.4492 46 55V57C46 57.5508 46.4453 58 47 58C47.5547 58 48 57.5508 48 57V55C48 54.4492 47.5547 54 47 54ZM52 54C51.4453 54 51 54.4492 51 55V57C51 57.5508 51.4453 58 52 58C52.5547 58 53 57.5508 53 57V55C53 54.4492 52.5547 54 52 54ZM57 54C56.4453 54 56 54.4492 56 55V57C56 57.5508 56.4453 58 57 58C57.5547 58 58 57.5508 58 57V55C58 54.4492 57.5547 54 57 54Z" fill="black"/>
        <path d="M32 5C31.4453 5 31 5.44922 31 6V9H28C27.4453 9 27 9.44922 27 10C27 10.5508 27.4453 11 28 11H31V14C31 14.5508 31.4453 15 32 15C32.5547 15 33 14.5508 33 14V11H36C36.5547 11 37 10.5508 37 10C37 9.44922 36.5547 9 36 9H33V6C33 5.44922 32.5547 5 32 5ZM7 54C6.44531 54 6 54.4492 6 55V57C6 57.5508 6.44531 58 7 58C7.55469 58 8 57.5508 8 57V55C8 54.4492 7.55469 54 7 54ZM12 54C11.4453 54 11 54.4492 11 55V57C11 57.5508 11.4453 58 12 58C12.5547 58 13 57.5508 13 57V55C13 54.4492 12.5547 54 12 54ZM17 54C16.4453 54 16 54.4492 16 55V57C16 57.5508 16.4453 58 17 58C17.5547 58 18 57.5508 18 57V55C18 54.4492 17.5547 54 17 54ZM22 54C21.4453 54 21 54.4492 21 55V57C21 57.5508 21.4453 58 22 58C22.5547 58 23 57.5508 23 57V55C23 54.4492 22.5547 54 22 54ZM42 54C41.4453 54 41 54.4492 41 55V57C41 57.5508 41.4453 58 42 58C42.5547 58 43 57.5508 43 57V55C43 54.4492 42.5547 54 42 54ZM47 54C46.4453 54 46 54.4492 46 55V57C46 57.5508 46.4453 58 47 58C47.5547 58 48 57.5508 48 57V55C48 54.4492 47.5547 54 47 54ZM52 54C51.4453 54 51 54.4492 51 55V57C51 57.5508 51.4453 58 52 58C52.5547 58 53 57.5508 53 57V55C53 54.4492 52.5547 54 52 54ZM57 54C56.4453 54 56 54.4492 56 55V57C56 57.5508 56.4453 58 57 58C57.5547 58 58 57.5508 58 57V55C58 54.4492 57.5547 54 57 54Z" fill="#BD9457"/>
    </symbol>
    <symbol id="cash" width="64" height="64" viewBox="0 0 64 64" fill="none">
        <path d="M31 2C15.0117 2 2 15.0078 2 31C2 46.9922 15.0117 60 31 60C46.9883 60 60 46.9922 60 31C60 15.0078 46.9883 2 31 2ZM31 4C45.8867 4 58 16.1133 58 31C58 45.8867 45.8867 58 31 58C16.1133 58 4 45.8867 4 31C4 16.1133 16.1133 4 31 4ZM30.5625 8.00781C24.6719 8.125 18.9609 10.5117 14.7344 14.7344C5.76953 23.7031 5.76953 38.293 14.7344 47.2617C14.9297 47.457 15.1875 47.5547 15.4414 47.5547C15.6992 47.5547 15.957 47.457 16.1523 47.2617C16.543 46.8711 16.543 46.2383 16.1523 45.8477C7.96094 37.6602 7.96484 24.3398 16.1523 16.1523C20.8984 11.4023 27.6992 9.20312 34.3398 10.2656C34.8828 10.3555 35.3984 9.98047 35.4844 9.4375C35.5742 8.89062 35.1992 8.375 34.6562 8.28906C33.293 8.07031 31.9219 7.97656 30.5625 8.00781ZM38.6562 9.38672C38.2695 9.40234 37.9102 9.64844 37.7656 10.0352C37.5703 10.5547 37.832 11.1289 38.3516 11.3242C39.0664 11.5898 39.7695 11.8984 40.4531 12.2383C40.5977 12.3125 40.75 12.3477 40.9023 12.3477C41.2656 12.3477 41.6172 12.1484 41.7969 11.7969C42.043 11.3047 41.8438 10.7031 41.3516 10.4531C40.6094 10.0781 39.832 9.74219 39.0508 9.44922C38.9219 9.40234 38.7891 9.38281 38.6562 9.38672ZM44.4336 12.6758C44.1797 12.707 43.9375 12.832 43.7656 13.0508C43.4258 13.4844 43.5 14.1133 43.9375 14.4531C44.6055 14.9766 45.2461 15.5469 45.8477 16.1523C54.0391 24.3398 54.0391 37.6602 45.8477 45.8477C45.457 46.2422 45.457 46.8711 45.8477 47.2656C46.043 47.457 46.3008 47.5586 46.5586 47.5586C46.8125 47.5586 47.0703 47.457 47.2656 47.2656C56.2305 38.2969 56.2305 23.7031 47.2656 14.7344C46.6055 14.0781 45.9023 13.4531 45.1719 12.8789C44.9531 12.7109 44.6836 12.6445 44.4336 12.6758ZM28 18C26.8984 18 26 18.8984 26 20V32H24C23.4453 32 23 32.4492 23 33C23 33.5508 23.4453 34 24 34H26V36H24C23.4453 36 23 36.4492 23 37C23 37.5508 23.4453 38 24 38H26V43C26 43.5508 26.4453 44 27 44C27.5547 44 28 43.5508 28 43V34H34C37.3086 34 40 31.3086 40 28V24C40 20.6914 37.3086 18 34 18H28ZM28 20H34C36.207 20 38 21.793 38 24V28C38 30.207 36.207 32 34 32H28V20ZM30 36C29.4453 36 29 36.4492 29 37C29 37.5508 29.4453 38 30 38H36C36.5547 38 37 37.5508 37 37C37 36.4492 36.5547 36 36 36H30ZM21.375 48.3945C20.9844 48.3477 20.5898 48.5273 20.3867 48.8867L19.3867 50.6211C19.1094 51.0977 19.2734 51.707 19.75 51.9844C19.9062 52.0742 20.0781 52.1211 20.25 52.1211C20.5938 52.1211 20.9297 51.9414 21.1133 51.6211L22.1133 49.8867C22.3906 49.4102 22.2305 48.7969 21.75 48.5195C21.6289 48.4531 21.5039 48.4102 21.375 48.3945ZM40.625 48.3945C40.4961 48.4102 40.3672 48.4531 40.25 48.5195C39.7695 48.7969 39.6094 49.4102 39.8867 49.8906L40.8867 51.6211C41.0703 51.9414 41.4062 52.1211 41.75 52.1211C41.9219 52.1211 42.0938 52.0781 42.25 51.9844C42.7305 51.7109 42.8906 51.0977 42.6133 50.6211L41.6133 48.8906C41.4062 48.5312 41.0117 48.3477 40.625 48.3945ZM36.1875 50.3438C36.0586 50.3242 35.9219 50.332 35.7852 50.3711C35.2539 50.5117 34.9375 51.0625 35.0781 51.5938L35.5977 53.5273C35.7188 53.9727 36.1211 54.2695 36.5625 54.2695C36.6523 54.2695 36.7383 54.2578 36.8242 54.2344C37.3555 54.0898 37.6758 53.543 37.5312 53.0117L37.0156 51.0781C36.9062 50.6758 36.5703 50.3984 36.1875 50.3438ZM25.8164 50.3438C25.4297 50.3984 25.0938 50.6758 24.9844 51.0781L24.4688 53.0117C24.3242 53.543 24.6445 54.0898 25.1758 54.2344C25.2617 54.2578 25.3477 54.2695 25.4375 54.2695C25.875 54.2695 26.2812 53.9727 26.4023 53.5273L26.9219 51.5938C27.0625 51.0625 26.7461 50.5117 26.2148 50.3711C26.0781 50.332 25.9453 50.3281 25.8164 50.3438ZM31 51C30.4453 51 30 51.4492 30 52V54C30 54.5508 30.4453 55 31 55C31.5547 55 32 54.5508 32 54V52C32 51.4492 31.5547 51 31 51Z" fill="black"/>
        <path d="M30.6231 18C29.4183 18 28.4356 18.8984 28.4356 20V32H26.2481C25.6414 32 25.1544 32.4492 25.1544 33C25.1544 33.5508 25.6414 34 26.2481 34H28.4356V36H26.2481C25.6414 36 25.1544 36.4492 25.1544 37C25.1544 37.5508 25.6414 38 26.2481 38H28.4356V43C28.4356 43.5508 28.9227 44 29.5294 44C30.1361 44 30.6231 43.5508 30.6231 43V34H37.1856C40.8044 34 43.7481 31.3086 43.7481 28V24C43.7481 20.6914 40.8044 18 37.1856 18H30.6231ZM30.6231 20H37.1856C39.5996 20 41.5606 21.793 41.5606 24V28C41.5606 30.207 39.5996 32 37.1856 32H30.6231V20ZM32.8106 36C32.2039 36 31.7169 36.4492 31.7169 37C31.7169 37.5508 32.2039 38 32.8106 38H39.3731C39.9798 38 40.4669 37.5508 40.4669 37C40.4669 36.4492 39.9798 36 39.3731 36H32.8106ZM23.377 48.3945C22.9498 48.3477 22.5183 48.5273 22.2961 48.8867L21.2023 50.6211C20.899 51.0977 21.0784 51.707 21.5997 51.9844C21.7706 52.0742 21.9586 52.1211 22.1466 52.1211C22.5225 52.1211 22.89 51.9414 23.0908 51.6211L24.1845 49.8867C24.4879 49.4102 24.3127 48.7969 23.7872 48.5195C23.6547 48.4531 23.518 48.4102 23.377 48.3945ZM44.4317 48.3945C44.2907 48.4102 44.1497 48.4531 44.0216 48.5195C43.496 48.7969 43.3209 49.4102 43.6242 49.8906L44.718 51.6211C44.9188 51.9414 45.2862 52.1211 45.6622 52.1211C45.8502 52.1211 46.0382 52.0781 46.2091 51.9844C46.7346 51.7109 46.9097 51.0977 46.6064 50.6211L45.5126 48.8906C45.2862 48.5312 44.8547 48.3477 44.4317 48.3945ZM39.5782 50.3438C39.4372 50.3242 39.2877 50.332 39.1381 50.3711C38.5571 50.5117 38.211 51.0625 38.3648 51.5938L38.9331 53.5273C39.0655 53.9727 39.5056 54.2695 39.9883 54.2695C40.0866 54.2695 40.1806 54.2578 40.2746 54.2344C40.8557 54.0898 41.206 53.543 41.0479 53.0117L40.484 51.0781C40.3643 50.6758 39.9969 50.3984 39.5782 50.3438ZM28.2348 50.3438C27.8118 50.3984 27.4444 50.6758 27.3248 51.0781L26.7608 53.0117C26.6027 53.543 26.9531 54.0898 27.5341 54.2344C27.6281 54.2578 27.7221 54.2695 27.8204 54.2695C28.2989 54.2695 28.7432 53.9727 28.8757 53.5273L29.4439 51.5938C29.5977 51.0625 29.2517 50.5117 28.6706 50.3711C28.5211 50.332 28.3758 50.3281 28.2348 50.3438ZM33.9044 51C33.2977 51 32.8106 51.4492 32.8106 52V54C32.8106 54.5508 33.2977 55 33.9044 55C34.5111 55 34.9981 54.5508 34.9981 54V52C34.9981 51.4492 34.5111 51 33.9044 51Z" fill="#BD9457"/>
    </symbol>
    <symbol id="approve" width="64" height="64" viewBox="0 0 64 64" fill="none">
        <path d="M31 2C27.75 2 24.5625 2.53516 21.5156 3.58594C20.9961 3.76562 20.7188 4.33594 20.9023 4.85938C21.082 5.37891 21.6523 5.65625 22.1719 5.47656C25.0039 4.49609 27.9727 4 31 4C45.8867 4 58 16.1133 58 31C58 45.168 46.9375 57.0039 32.8125 57.9375C32.2617 57.9766 31.8477 58.4531 31.8867 59.0039C31.918 59.5312 32.3594 59.9375 32.8789 59.9375C32.9023 59.9375 32.9258 59.9375 32.9492 59.9375C48.1172 58.9297 60 46.2188 60 31C60 15.0078 46.9922 2 31 2ZM16.875 5.75781C16.75 5.77344 16.6211 5.81641 16.5 5.88281C16.0195 6.16016 15.8594 6.77344 16.1367 7.25L17.1367 8.98438C17.3203 9.30469 17.6562 9.48438 18 9.48438C18.1719 9.48438 18.3438 9.44141 18.5 9.35156C18.9805 9.07422 19.1406 8.46094 18.8633 7.98438L17.8633 6.25C17.6602 5.89453 17.2656 5.71094 16.875 5.75781ZM31.5312 8.00391C28.4023 7.92969 25.2812 8.49609 22.3711 9.67188C21.8555 9.87891 21.6133 10.4648 21.8164 10.9766C21.9766 11.3672 22.3477 11.6016 22.7461 11.6016C22.8711 11.6016 22.9961 11.5781 23.1211 11.5312C26.6641 10.0938 30.5469 9.65625 34.3398 10.2656C34.8867 10.3555 35.3984 9.98047 35.4844 9.4375C35.5703 8.89062 35.1992 8.375 34.6562 8.28906C33.6172 8.12109 32.5703 8.02734 31.5312 8.00391ZM12.3164 9.19531C12.0625 9.17969 11.8008 9.26562 11.5938 9.44922C11.1836 9.82031 11.1523 10.4531 11.5195 10.8594L12.8594 12.3477C13.0547 12.5664 13.3281 12.6758 13.6055 12.6758C13.8398 12.6758 14.082 12.5938 14.2695 12.4219C14.6836 12.0508 14.7148 11.418 14.3438 11.0117L13.0078 9.52344C12.8242 9.31641 12.5703 9.20703 12.3164 9.19531ZM38.6602 9.38672C38.2695 9.40234 37.9102 9.64844 37.7656 10.0352C37.5742 10.5547 37.8359 11.1289 38.3516 11.3242C39.0625 11.5898 39.7695 11.8945 40.4492 12.2383C40.5938 12.3125 40.75 12.3477 40.9023 12.3477C41.2656 12.3477 41.6172 12.1484 41.7969 11.7969C42.043 11.3047 41.8438 10.7031 41.3516 10.4531C40.6055 10.0781 39.832 9.74219 39.0508 9.44922C38.9219 9.40234 38.7891 9.38281 38.6602 9.38672ZM8.19141 13.5547C7.9375 13.5938 7.70312 13.7305 7.53906 13.9531C7.21484 14.3984 7.3125 15.0273 7.75781 15.3516L9.37891 16.5273C9.55469 16.6562 9.76172 16.7188 9.96484 16.7188C10.2734 16.7188 10.5781 16.5742 10.7773 16.3086C11.1016 15.8594 11 15.2344 10.5547 14.9062L8.9375 13.7344C8.71094 13.5703 8.44531 13.5156 8.19141 13.5547ZM5.4375 18.6094C5.05078 18.6055 4.67578 18.8281 4.50781 19.2031C4.28516 19.7109 4.50781 20.3008 5.01562 20.5273L6.84375 21.3398C6.97266 21.3984 7.10938 21.4258 7.24609 21.4258C7.62891 21.4258 7.99609 21.2031 8.16016 20.8281C8.38672 20.3242 8.16016 19.7344 7.65625 19.5117L5.82812 18.6992C5.69922 18.6406 5.57031 18.6133 5.4375 18.6094ZM43 22C42.7461 22 42.4883 22.0977 42.293 22.293L28 36.5859L20.707 29.293C20.3164 28.9023 19.6836 28.9023 19.293 29.293C18.9023 29.6836 18.9023 30.3164 19.293 30.707L27.293 38.707C27.4883 38.9023 27.7422 39 28 39C28.2578 39 28.5117 38.9023 28.707 38.707L43.707 23.707C44.0977 23.3164 44.0977 22.6836 43.707 22.293C43.5117 22.0977 43.2539 22 43 22ZM3.42188 24.1953C3.03906 24.2695 2.71875 24.5664 2.63281 24.9727C2.51953 25.5117 2.86328 26.043 3.40625 26.1562L5.35938 26.5742C5.42969 26.5859 5.5 26.5938 5.57031 26.5938C6.03125 26.5938 6.44531 26.2734 6.54688 25.8008C6.66016 25.2617 6.31641 24.7305 5.77344 24.6172L3.82031 24.2031C3.68359 24.1719 3.55078 24.1719 3.42188 24.1953ZM3 30C2.44922 30 2 30.4492 2 31C2 31.5508 2.44922 32 3 32H5C5.55078 32 6 31.5508 6 31C6 30.4492 5.55078 30 5 30H3ZM5.75781 35.4219C5.62891 35.3984 5.49219 35.3984 5.35938 35.4258L3.40234 35.8438C2.86328 35.957 2.51953 36.4883 2.63281 37.0312C2.73438 37.5 3.14844 37.8203 3.60938 37.8203C3.67969 37.8203 3.74609 37.8125 3.81641 37.7969L5.77344 37.3828C6.31641 37.2695 6.66016 36.7383 6.54688 36.1992C6.46094 35.793 6.13672 35.4961 5.75781 35.4219ZM7.23047 40.5742C7.10156 40.5781 6.96875 40.6055 6.84375 40.6602L5.01562 41.4727C4.51172 41.6992 4.28516 42.2891 4.50781 42.7969C4.67188 43.168 5.03906 43.3906 5.42188 43.3906C5.55859 43.3906 5.69531 43.3594 5.82812 43.3008L7.65625 42.4883C8.16016 42.2656 8.38672 41.6719 8.16406 41.168C7.99219 40.7891 7.62109 40.5664 7.23047 40.5742ZM10.1211 45.2969C9.86719 45.2539 9.60156 45.3086 9.375 45.4727L7.75781 46.6484C7.3125 46.9727 7.21484 47.6016 7.53906 48.0469C7.73438 48.3164 8.03906 48.457 8.35156 48.457C8.55469 48.457 8.75781 48.3984 8.9375 48.2656L10.5547 47.0938C11 46.7656 11.1016 46.1406 10.7773 45.6914C10.6133 45.4688 10.375 45.3359 10.1211 45.2969ZM13.5469 49.3242C13.293 49.3359 13.043 49.4492 12.8594 49.6523L11.5195 51.1406C11.1523 51.5469 11.1875 52.1797 11.5938 52.5508C11.7852 52.7227 12.0273 52.8086 12.2656 52.8086C12.5391 52.8086 12.8086 52.6953 13.0078 52.4766L14.3438 50.9883C14.7148 50.582 14.6797 49.9492 14.2695 49.5781C14.0664 49.3945 13.8047 49.3125 13.5469 49.3242ZM18.125 52.5234C17.7344 52.4766 17.3398 52.6562 17.1367 53.0156L16.1367 54.75C15.8594 55.2266 16.0234 55.8359 16.5 56.1133C16.6562 56.2031 16.8281 56.25 17 56.25C17.3438 56.25 17.6797 56.0703 17.8633 55.75L18.8633 54.0156C19.1406 53.5391 18.9805 52.9258 18.5 52.6523C18.3789 52.582 18.2539 52.5391 18.125 52.5234ZM22.8789 54.7305C22.4883 54.7656 22.1406 55.0234 22.0156 55.418L21.3945 57.3203C21.2266 57.8438 21.5117 58.4102 22.0352 58.5781C22.1406 58.6133 22.2461 58.6289 22.3477 58.6289C22.7695 58.6289 23.1602 58.3594 23.2969 57.9375L23.918 56.0352C24.0859 55.5117 23.7969 54.9453 23.2734 54.7773C23.1406 54.7344 23.0078 54.7188 22.8789 54.7305ZM28.3867 55.8633C27.8281 55.8086 27.3438 56.2031 27.2852 56.7539L27.0781 58.7422C27.0195 59.293 27.418 59.7852 27.9688 59.8438C28.0039 59.8438 28.0391 59.8438 28.0742 59.8438C28.5781 59.8438 29.0117 59.4648 29.0664 58.9492L29.2773 56.9609C29.3359 56.4141 28.9375 55.9219 28.3867 55.8633Z" fill="black"/>
        <path d="M31.5312 8.00401C28.4023 7.9298 25.2812 8.4962 22.3711 9.67198C21.8555 9.87901 21.6133 10.465 21.8164 10.9767C21.9766 11.3673 22.3477 11.6017 22.7461 11.6017C22.8711 11.6017 22.9961 11.5782 23.1211 11.5314C26.6641 10.0939 30.5469 9.65636 34.3398 10.2657C34.8867 10.3556 35.3984 9.98058 35.4844 9.43761C35.5703 8.89073 35.1992 8.37511 34.6562 8.28917C33.6172 8.1212 32.5703 8.02745 31.5312 8.00401ZM38.6602 9.38683C38.2695 9.40245 37.9102 9.64855 37.7656 10.0353C37.5742 10.5548 37.8359 11.129 38.3516 11.3243C39.0625 11.59 39.7695 11.8946 40.4492 12.2384C40.5938 12.3126 40.75 12.3478 40.9023 12.3478C41.2656 12.3478 41.6172 12.1485 41.7969 11.797C42.043 11.3048 41.8438 10.7032 41.3516 10.4532C40.6055 10.0782 39.832 9.74229 39.0508 9.44933C38.9219 9.40245 38.7891 9.38292 38.6602 9.38683ZM43 22.0001C42.7461 22.0001 42.4883 22.0978 42.293 22.2931L28 36.586L20.707 29.2931C20.3164 28.9025 19.6836 28.9025 19.293 29.2931C18.9023 29.6837 18.9023 30.3165 19.293 30.7071L27.293 38.7071C27.4883 38.9025 27.7422 39.0001 28 39.0001C28.2578 39.0001 28.5117 38.9025 28.707 38.7071L43.707 23.7071C44.0977 23.3165 44.0977 22.6837 43.707 22.2931C43.5117 22.0978 43.2539 22.0001 43 22.0001Z" fill="#BD9457"/>
</symbol>

</svg>