<svg width="15" height="16" viewBox="0 0 15 16" fill="none" xmlns="http://www.w3.org/2000/svg">
<path fill-rule="evenodd" clip-rule="evenodd" d="M12.8149 2.18994C11.4038 0.778809 9.52881 0 7.53174 0C3.41553 0 0.0634769 3.34961 0.0634769 7.46582C0.061035 8.78174 0.405274 10.0659 1.05957 11.1987L0 15.0684L3.95996 14.0283C5.04883 14.624 6.2793 14.9365 7.5293 14.939H7.53174C11.6479 14.939 14.9976 11.5894 15 7.4707C15 5.47607 14.2236 3.60107 12.8149 2.18994ZM7.53174 13.6768H7.5293C6.41602 13.6768 5.32227 13.3765 4.37012 12.8125L4.14307 12.6782L1.79199 13.2935L2.41943 11.0034L2.27295 10.769C1.65039 9.78027 1.32324 8.6377 1.32324 7.46582C1.32324 4.04541 4.10889 1.26221 7.53418 1.26221C9.19189 1.26221 10.7495 1.90918 11.9214 3.08106C13.0933 4.25537 13.7378 5.81299 13.7378 7.4707C13.7378 10.8936 10.9521 13.6768 7.53174 13.6768ZM10.9351 9.02832C10.7495 8.93555 9.83154 8.48389 9.66064 8.42285C9.48975 8.35938 9.36523 8.33008 9.24072 8.51562C9.11621 8.70361 8.75977 9.12354 8.6499 9.24805C8.54248 9.37012 8.43262 9.38721 8.24707 9.29443C8.05908 9.20166 7.4585 9.00391 6.74561 8.3667C6.19141 7.87353 5.81543 7.26074 5.70801 7.0752C5.59814 6.88721 5.6958 6.78711 5.78857 6.69434C5.87402 6.61133 5.97656 6.47705 6.06934 6.36719C6.16211 6.25977 6.19385 6.18164 6.25732 6.05713C6.31836 5.93262 6.28662 5.82275 6.24023 5.72998C6.19385 5.63721 5.82031 4.7168 5.66406 4.34326C5.5127 3.97949 5.35889 4.03076 5.24414 4.02344C5.13672 4.01856 5.01221 4.01856 4.8877 4.01856C4.76318 4.01856 4.56055 4.06494 4.38965 4.25293C4.21875 4.43848 3.73779 4.89014 3.73779 5.80811C3.73779 6.72607 4.40674 7.61475 4.49951 7.73926C4.59228 7.86133 5.81543 9.74609 7.68799 10.5542C8.13232 10.7471 8.479 10.8618 8.75 10.9473C9.19678 11.0889 9.60449 11.0693 9.92676 11.0229C10.2856 10.9692 11.0303 10.5713 11.1865 10.1343C11.3403 9.69971 11.3403 9.32617 11.2939 9.24805C11.2476 9.16992 11.123 9.12354 10.9351 9.02832Z" fill="white"/>
</svg>
